<svg xmlns="http://www.w3.org/2000/svg" width="200" height="50" viewBox="0 0 200 50" shape-rendering="auto"><polyline points="0,47.5 1.2345679012345678,45.78520302275248 2.4691358024691357,45.21360403033668 3.7037037037037033,44.92783527055817 4.938271604938271,44.75637401469103 6.172839506172839,44.07047981293554 7.407407407407407,44.07050440207908 8.641975308641975,44.07052899122257 9.876543209876543,44.07052899122257 11.11111111111111,44.07052899122257 12.345679012345679,44.07052899122257 13.580246913580247,44.07052899122257 14.814814814814815,44.07052899122257 16.049382716049383,44.07052899122257 17.28395061728395,44.07052899122257 18.518518518518515,43.824612966816396 19.75308641975308,43.57869694241028 20.987654320987648,43.332780918004104 22.222222222222214,43.08686489359794 23.45679012345678,42.84094886919176 24.691358024691347,42.84094886919176 25.925925925925913,42.8409734583353 27.16049382716048,42.84099804747879 28.395061728395046,42.84102263662228 29.629629629629612,42.84104722576581 30.86419753086418,42.8410718149093 32.098765432098745,42.8410718149093 33.333333333333314,42.59518037964667 34.567901234567884,42.349288944383986 35.802469135802454,42.3492643552405 37.037037037037024,42.349239766097014 38.271604938271594,42.34921517695348 39.50617283950616,42.349190587809986 40.74074074074073,41.537724262299655 41.9753086419753,40.480391090670224 43.20987654320987,39.42305791904075 44.44444444444444,38.36572474741127 45.67901234567901,37.55428301104453 46.91358024691358,37.55428301104453 48.14814814814815,37.55428301104453 49.38271604938272,37.55428301104453 50.61728395061729,37.155938885919035 51.85185185185186,36.75759476079354 53.08641975308643,36.35925063566805 54.320987654321,35.96090651054256 55.55555555555557,35.56256238541705 56.79012345679014,35.56256238541705 58.02469135802471,35.56256238541705 59.25925925925928,35.56256238541705 60.49382716049385,35.56256238541705 61.72839506172842,35.560103471064416 62.96296296296299,35.11012214453375 64.19753086419756,34.660140818003086 65.43209876543213,34.21015949147242 66.6666666666667,33.76017816494176 67.90123456790127,33.31265575276373 69.13580246913584,33.31265575276373 70.37037037037041,33.31265575276373 71.60493827160498,33.12823717631674 72.83950617283955,32.943818599869736 74.07407407407412,32.759400023422735 75.30864197530869,32.574981446975734 76.54320987654326,32.39056287052873 77.77777777777783,32.39056287052873 79.0123456790124,30.792268541321466 80.24691358024697,29.1939742121142 81.48148148148154,27.59567988290693 82.71604938271611,25.997385553699658 83.95061728395068,24.399091224492395 85.18518518518525,24.399091224492395 86.41975308641982,24.399091224492395 87.65432098765439,24.399091224492395 88.88888888888896,24.399091224492395 90.12345679012353,24.399091224492395 91.3580246913581,24.399091224492395 92.59259259259267,24.399091224492395 93.82716049382724,24.399091224492395 95.0617283950618,24.42368036801866 96.29629629629638,24.448269511544922 97.53086419753095,24.472858655071132 98.76543209876552,24.497447798597396 100.00000000000009,24.52203694212366 101.23456790123466,24.52203694212366 102.46913580246922,24.251556363334764 103.7037037037038,23.98107578454587 104.93827160493836,21.745922638008295 106.17283950617293,19.510769491470718 107.4074074074075,17.275616344933194 108.64197530864207,15.310943777184514 109.87654320987664,13.346271209435887 111.11111111111121,13.346271209435887 112.34567901234578,13.346271209435887 113.58024691358035,13.346271209435887 114.81481481481492,13.346271209435887 116.0493827160495,13.346271209435887 117.28395061728406,13.346271209435887 118.51851851851863,13.346271209435887 119.7530864197532,13.346271209435887 120.98765432098777,13.346271209435887 122.22222222222234,13.346271209435887 123.45679012345691,12.852029424557982 124.69135802469148,11.152919606892965 125.92592592592605,9.060383492807738 127.16049382716062,6.992436522248774 128.39506172839518,4.924489551689863 129.62962962962973,3.3507843660088596 130.8641975308643,2.9819472131149123 132.09876543209884,2.9819472131149123 133.3333333333334,2.957358069588649 134.56790123456796,2.9327689260623315 135.8024691358025,2.908179782536014 137.03703703703707,2.8835906390097508 138.27160493827162,2.8835906390097508 139.50617283950618,2.8835906390097508 140.74074074074073,2.8835906390097508 141.9753086419753,2.8835906390097508 143.20987654320984,2.8835906390097508 144.4444444444444,2.8835906390097508 145.67901234567896,2.787692979257286 146.9135802469135,2.6917953195048767 148.14814814814807,2.595897659752467 149.38271604938262,2.500000000000002 150.61728395061718,2.8688371528940038 151.85185185185173,2.8688371528940038 153.0864197530863,2.8688371528940038 154.32098765432085,2.8688371528940038 155.5555555555554,3.5794634008031014 156.79012345678996,3.8253548360657326 158.0246913580245,4.53598108397483 159.25925925925907,5.2466073318839275 160.49382716049362,5.957233579793025 161.72839506172818,5.957233579793025 162.96296296296273,5.957233579793025 164.1975308641973,5.957233579793025 165.43209876543185,5.957233579793025 166.6666666666664,5.957233579793025 167.90123456790096,5.957233579793025 169.1358024691355,5.957233579793025 170.37037037037007,5.957233579793025 171.60493827160462,6.006411866845552 172.83950617283918,6.0801792974243405 174.07407407407374,6.153946728003184 175.3086419753083,6.744086172633555 176.54320987654285,7.7276519136841895 177.7777777777774,8.662039367682242 179.01234567901196,9.571837678154088 180.2469135802465,10.481635988625932 181.48148148148107,10.875064743960536 182.71604938271562,11.12095617922322 183.95061728395018,11.696342137737844 185.18518518518474,12.271728096252412 186.4197530864193,12.847116513681371 187.65432098765385,13.422502472196049 188.8888888888884,13.751996995447987 190.12345679012296,13.751996995447987 191.3580246913575,13.751996995447987 192.59259259259207,13.751996995447987 193.82716049382663,13.751996995447987 195.06172839506118,13.751999454362325 196.29629629629574,13.752001913276716 197.5308641975303,13.752004372191108 198.76543209876485,13.752004372191054 199.9999999999994,NaN " stroke="#1fad57" stroke-width="2" stroke-opacity="1" fill="none" fill-opacity="0" stroke-linejoin="round" vector-effect="non-scaling-stroke"/><defs><linearGradient id="areaGradient" x1="0%" y1="0%" x2="0%" y2="100%"><stop offset="0%" stop-color="#1fad57" stop-opacity="0.25"/><stop offset="100%" stop-color="#1fad57" stop-opacity="0"/></linearGradient></defs><path d="&#10;      M 0,47.5 &#10;      L 0,47.5 &#10;      L 0,47.5 L 1.2345679012345678,45.78520302275248 L 2.4691358024691357,45.21360403033668 L 3.7037037037037033,44.92783527055817 L 4.938271604938271,44.75637401469103 L 6.172839506172839,44.07047981293554 L 7.407407407407407,44.07050440207908 L 8.641975308641975,44.07052899122257 L 9.876543209876543,44.07052899122257 L 11.11111111111111,44.07052899122257 L 12.345679012345679,44.07052899122257 L 13.580246913580247,44.07052899122257 L 14.814814814814815,44.07052899122257 L 16.049382716049383,44.07052899122257 L 17.28395061728395,44.07052899122257 L 18.518518518518515,43.824612966816396 L 19.75308641975308,43.57869694241028 L 20.987654320987648,43.332780918004104 L 22.222222222222214,43.08686489359794 L 23.45679012345678,42.84094886919176 L 24.691358024691347,42.84094886919176 L 25.925925925925913,42.8409734583353 L 27.16049382716048,42.84099804747879 L 28.395061728395046,42.84102263662228 L 29.629629629629612,42.84104722576581 L 30.86419753086418,42.8410718149093 L 32.098765432098745,42.8410718149093 L 33.333333333333314,42.59518037964667 L 34.567901234567884,42.349288944383986 L 35.802469135802454,42.3492643552405 L 37.037037037037024,42.349239766097014 L 38.271604938271594,42.34921517695348 L 39.50617283950616,42.349190587809986 L 40.74074074074073,41.537724262299655 L 41.9753086419753,40.480391090670224 L 43.20987654320987,39.42305791904075 L 44.44444444444444,38.36572474741127 L 45.67901234567901,37.55428301104453 L 46.91358024691358,37.55428301104453 L 48.14814814814815,37.55428301104453 L 49.38271604938272,37.55428301104453 L 50.61728395061729,37.155938885919035 L 51.85185185185186,36.75759476079354 L 53.08641975308643,36.35925063566805 L 54.320987654321,35.96090651054256 L 55.55555555555557,35.56256238541705 L 56.79012345679014,35.56256238541705 L 58.02469135802471,35.56256238541705 L 59.25925925925928,35.56256238541705 L 60.49382716049385,35.56256238541705 L 61.72839506172842,35.560103471064416 L 62.96296296296299,35.11012214453375 L 64.19753086419756,34.660140818003086 L 65.43209876543213,34.21015949147242 L 66.6666666666667,33.76017816494176 L 67.90123456790127,33.31265575276373 L 69.13580246913584,33.31265575276373 L 70.37037037037041,33.31265575276373 L 71.60493827160498,33.12823717631674 L 72.83950617283955,32.943818599869736 L 74.07407407407412,32.759400023422735 L 75.30864197530869,32.574981446975734 L 76.54320987654326,32.39056287052873 L 77.77777777777783,32.39056287052873 L 79.0123456790124,30.792268541321466 L 80.24691358024697,29.1939742121142 L 81.48148148148154,27.59567988290693 L 82.71604938271611,25.997385553699658 L 83.95061728395068,24.399091224492395 L 85.18518518518525,24.399091224492395 L 86.41975308641982,24.399091224492395 L 87.65432098765439,24.399091224492395 L 88.88888888888896,24.399091224492395 L 90.12345679012353,24.399091224492395 L 91.3580246913581,24.399091224492395 L 92.59259259259267,24.399091224492395 L 93.82716049382724,24.399091224492395 L 95.0617283950618,24.42368036801866 L 96.29629629629638,24.448269511544922 L 97.53086419753095,24.472858655071132 L 98.76543209876552,24.497447798597396 L 100.00000000000009,24.52203694212366 L 101.23456790123466,24.52203694212366 L 102.46913580246922,24.251556363334764 L 103.7037037037038,23.98107578454587 L 104.93827160493836,21.745922638008295 L 106.17283950617293,19.510769491470718 L 107.4074074074075,17.275616344933194 L 108.64197530864207,15.310943777184514 L 109.87654320987664,13.346271209435887 L 111.11111111111121,13.346271209435887 L 112.34567901234578,13.346271209435887 L 113.58024691358035,13.346271209435887 L 114.81481481481492,13.346271209435887 L 116.0493827160495,13.346271209435887 L 117.28395061728406,13.346271209435887 L 118.51851851851863,13.346271209435887 L 119.7530864197532,13.346271209435887 L 120.98765432098777,13.346271209435887 L 122.22222222222234,13.346271209435887 L 123.45679012345691,12.852029424557982 L 124.69135802469148,11.152919606892965 L 125.92592592592605,9.060383492807738 L 127.16049382716062,6.992436522248774 L 128.39506172839518,4.924489551689863 L 129.62962962962973,3.3507843660088596 L 130.8641975308643,2.9819472131149123 L 132.09876543209884,2.9819472131149123 L 133.3333333333334,2.957358069588649 L 134.56790123456796,2.9327689260623315 L 135.8024691358025,2.908179782536014 L 137.03703703703707,2.8835906390097508 L 138.27160493827162,2.8835906390097508 L 139.50617283950618,2.8835906390097508 L 140.74074074074073,2.8835906390097508 L 141.9753086419753,2.8835906390097508 L 143.20987654320984,2.8835906390097508 L 144.4444444444444,2.8835906390097508 L 145.67901234567896,2.787692979257286 L 146.9135802469135,2.6917953195048767 L 148.14814814814807,2.595897659752467 L 149.38271604938262,2.500000000000002 L 150.61728395061718,2.8688371528940038 L 151.85185185185173,2.8688371528940038 L 153.0864197530863,2.8688371528940038 L 154.32098765432085,2.8688371528940038 L 155.5555555555554,3.5794634008031014 L 156.79012345678996,3.8253548360657326 L 158.0246913580245,4.53598108397483 L 159.25925925925907,5.2466073318839275 L 160.49382716049362,5.957233579793025 L 161.72839506172818,5.957233579793025 L 162.96296296296273,5.957233579793025 L 164.1975308641973,5.957233579793025 L 165.43209876543185,5.957233579793025 L 166.6666666666664,5.957233579793025 L 167.90123456790096,5.957233579793025 L 169.1358024691355,5.957233579793025 L 170.37037037037007,5.957233579793025 L 171.60493827160462,6.006411866845552 L 172.83950617283918,6.0801792974243405 L 174.07407407407374,6.153946728003184 L 175.3086419753083,6.744086172633555 L 176.54320987654285,7.7276519136841895 L 177.7777777777774,8.662039367682242 L 179.01234567901196,9.571837678154088 L 180.2469135802465,10.481635988625932 L 181.48148148148107,10.875064743960536 L 182.71604938271562,11.12095617922322 L 183.95061728395018,11.696342137737844 L 185.18518518518474,12.271728096252412 L 186.4197530864193,12.847116513681371 L 187.65432098765385,13.422502472196049 L 188.8888888888884,13.751996995447987 L 190.12345679012296,13.751996995447987 L 191.3580246913575,13.751996995447987 L 192.59259259259207,13.751996995447987 L 193.82716049382663,13.751996995447987 L 195.06172839506118,13.751999454362325 L 196.29629629629574,13.752001913276716 L 197.5308641975303,13.752004372191108 L 198.76543209876485,13.752004372191054 L 199.9999999999994,47.5 L 0,47.5 &#10;      L 0,47.5 &#10;      Z&#10;    " fill="url(#areaGradient)"/></svg>