<svg xmlns="http://www.w3.org/2000/svg" width="200" height="50" viewBox="0 0 200 50" shape-rendering="auto"><polyline points="0,5.6458596683042614 1.2345679012345678,4.072929834152106 2.4691358024691357,3.548619889434703 3.7037037037037033,3.286464917076002 4.938271604938271,3.129171933660802 6.172839506172839,2.500000000000002 7.407407407407407,2.500000000000002 8.641975308641975,2.500000000000002 9.876543209876543,2.500000000000002 11.11111111111111,2.500000000000002 12.345679012345679,2.500000000000002 13.580246913580247,2.500000000000002 14.814814814814815,2.500000000000002 16.049382716049383,2.500000000000002 17.28395061728395,2.500000000000002 18.518518518518515,2.500000000000002 19.75308641975308,2.500000000000002 20.987654320987648,2.500000000000002 22.222222222222214,2.500000000000002 23.45679012345678,2.500000000000002 24.691358024691347,2.500000000000002 25.925925925925913,2.500000000000002 27.16049382716048,2.500000000000002 28.395061728395046,2.500000000000002 29.629629629629612,2.500000000000002 30.86419753086418,2.500000000000002 32.098765432098745,2.500000000000002 33.333333333333314,2.6750860044869986 34.567901234567884,2.850172008973995 35.802469135802454,3.0252580134609914 37.037037037037024,3.2003440179479883 38.271604938271594,3.3754300224349847 39.50617283950616,15.950185449843667 40.74074074074073,28.524940877252355 41.9753086419753,41.09969630466103 43.20987654320987,47.5 44.44444444444444,47.32491399551301 45.67901234567901,35.15398205333925 46.91358024691358,23.182610468783007 48.14814814814815,11.211238884226711 49.38271604938272,5.414319031740178 50.61728395061729,20.230460274191337 51.85185185185186,34.46769202692057 53.08641975308643,34.46769202692057 54.320987654321,34.46769202692057 55.55555555555557,34.46769202692057 56.79012345679014,20.430020631808787 58.02469135802471,6.392349236696962 59.25925925925928,6.1927888790795595 60.49382716049385,5.993228521462158 61.72839506172842,5.920716908898927 62.96296296296299,5.848205296335749 64.19753086419756,5.775693683772517 65.43209876543213,5.902742428826739 66.6666666666667,6.029791173880962 67.90123456790127,6.029791173880962 69.13580246913584,6.029791173880962 70.37037037037041,6.455206961799144 71.60493827160498,6.668685583841441 72.83950617283955,6.882164205883791 74.07407407407412,7.095642827926088 75.30864197530869,7.309121449968387 76.54320987654326,7.097184284092554 77.77777777777783,7.097184284092554 79.0123456790124,7.097184284092554 80.24691358024697,7.097184284092554 81.48148148148154,7.097184284092554 82.71604938271611,7.097184284092554 83.95061728395068,7.097184284092554 85.18518518518525,7.998511207529619 86.41975308641982,8.899838130966684 87.65432098765439,9.80116505440375 88.88888888888896,10.702491977840813 90.12345679012353,11.603818901277828 91.3580246913581,11.603818901277828 92.59259259259267,11.603818901277828 93.82716049382724,11.603818901277828 95.0617283950618,11.603818901277828 96.29629629629638,11.603818901277828 97.53086419753095,11.603818901277828 98.76543209876552,11.603818901277828 100.00000000000009,11.603818901277828 101.23456790123466,11.603818901277828 102.46913580246922,11.142051787880174 103.7037037037038,10.287370434660744 104.93827160493836,9.432689081441314 106.17283950617293,8.578007728221884 107.4074074074075,7.723326375002454 108.64197530864207,7.33041213518073 109.87654320987664,7.33041213518073 111.11111111111121,7.33041213518073 112.34567901234578,7.33041213518073 113.58024691358035,7.33041213518073 114.81481481481492,7.33041213518073 116.0493827160495,7.33041213518073 117.28395061728406,7.33041213518073 118.51851851851863,7.33041213518073 119.7530864197532,7.33041213518073 120.98765432098777,7.33041213518073 122.22222222222234,7.33041213518073 123.45679012345691,7.33041213518073 124.69135802469148,7.33041213518073 125.92592592592605,7.33041213518073 127.16049382716062,7.33041213518073 128.39506172839518,7.33041213518073 129.62962962962973,7.33041213518073 130.8641975308643,7.33041213518073 132.09876543209884,7.33041213518073 133.3333333333334,7.33041213518073 134.56790123456796,7.33041213518073 135.8024691358025,7.33041213518073 137.03703703703707,7.33041213518073 138.27160493827162,7.33041213518073 139.50617283950618,7.33041213518073 140.74074074074073,7.33041213518073 141.9753086419753,7.33041213518073 143.20987654320984,7.33041213518073 144.4444444444444,7.33041213518073 145.67901234567896,7.33041213518073 146.9135802469135,7.33041213518073 148.14814814814807,7.33041213518073 149.38271604938262,7.33041213518073 150.61728395061718,7.33041213518073 151.85185185185173,7.33041213518073 153.0864197530863,7.33041213518073 154.32098765432085,7.33041213518073 155.5555555555554,7.33041213518073 156.79012345678996,7.33041213518073 158.0246913580245,7.33041213518073 159.25925925925907,7.33041213518073 160.49382716049362,7.33041213518073 161.72839506172818,7.33041213518073 162.96296296296273,7.33041213518073 164.1975308641973,7.33041213518073 165.43209876543185,7.33041213518073 166.6666666666664,7.33041213518073 167.90123456790096,7.33041213518073 169.1358024691355,7.33041213518073 170.37037037037007,7.33041213518073 171.60493827160462,8.006437088109664 172.83950617283918,8.682462041038542 174.07407407407374,9.72659949059812 175.3086419753083,10.770736940157699 176.54320987654285,13.188053312303476 177.7777777777774,14.929344731520368 179.01234567901196,16.670636150737266 180.2469135802465,22.085796240810904 181.48148148148107,27.500956330884588 182.71604938271562,31.542937498371966 183.95061728395018,35.5849186658594 185.18518518518474,39.62689983334679 186.4197530864193,39.62689983334679 187.65432098765385,39.62689983334679 188.8888888888884,39.62689983334679 190.12345679012296,39.62689983334679 191.3580246913575,39.62689983334679 192.59259259259207,39.62689983334679 193.82716049382663,39.62689983334679 195.06172839506118,39.62689983334679 196.29629629629574,39.62689983334679 197.5308641975303,39.62689983334679 198.76543209876485,39.62689983334684 199.9999999999994,NaN " stroke="#d92626" stroke-width="2" stroke-opacity="1" fill="none" fill-opacity="0" stroke-linejoin="round" vector-effect="non-scaling-stroke"/><defs><linearGradient id="areaGradient" x1="0%" y1="0%" x2="0%" y2="100%"><stop offset="0%" stop-color="#d92626" stop-opacity="0.25"/><stop offset="100%" stop-color="#d92626" stop-opacity="0"/></linearGradient></defs><path d="&#10;      M 0,47.5 &#10;      L 0,5.6458596683042614 &#10;      L 0,5.6458596683042614 L 1.2345679012345678,4.072929834152106 L 2.4691358024691357,3.548619889434703 L 3.7037037037037033,3.286464917076002 L 4.938271604938271,3.129171933660802 L 6.172839506172839,2.500000000000002 L 7.407407407407407,2.500000000000002 L 8.641975308641975,2.500000000000002 L 9.876543209876543,2.500000000000002 L 11.11111111111111,2.500000000000002 L 12.345679012345679,2.500000000000002 L 13.580246913580247,2.500000000000002 L 14.814814814814815,2.500000000000002 L 16.049382716049383,2.500000000000002 L 17.28395061728395,2.500000000000002 L 18.518518518518515,2.500000000000002 L 19.75308641975308,2.500000000000002 L 20.987654320987648,2.500000000000002 L 22.222222222222214,2.500000000000002 L 23.45679012345678,2.500000000000002 L 24.691358024691347,2.500000000000002 L 25.925925925925913,2.500000000000002 L 27.16049382716048,2.500000000000002 L 28.395061728395046,2.500000000000002 L 29.629629629629612,2.500000000000002 L 30.86419753086418,2.500000000000002 L 32.098765432098745,2.500000000000002 L 33.333333333333314,2.6750860044869986 L 34.567901234567884,2.850172008973995 L 35.802469135802454,3.0252580134609914 L 37.037037037037024,3.2003440179479883 L 38.271604938271594,3.3754300224349847 L 39.50617283950616,15.950185449843667 L 40.74074074074073,28.524940877252355 L 41.9753086419753,41.09969630466103 L 43.20987654320987,47.5 L 44.44444444444444,47.32491399551301 L 45.67901234567901,35.15398205333925 L 46.91358024691358,23.182610468783007 L 48.14814814814815,11.211238884226711 L 49.38271604938272,5.414319031740178 L 50.61728395061729,20.230460274191337 L 51.85185185185186,34.46769202692057 L 53.08641975308643,34.46769202692057 L 54.320987654321,34.46769202692057 L 55.55555555555557,34.46769202692057 L 56.79012345679014,20.430020631808787 L 58.02469135802471,6.392349236696962 L 59.25925925925928,6.1927888790795595 L 60.49382716049385,5.993228521462158 L 61.72839506172842,5.920716908898927 L 62.96296296296299,5.848205296335749 L 64.19753086419756,5.775693683772517 L 65.43209876543213,5.902742428826739 L 66.6666666666667,6.029791173880962 L 67.90123456790127,6.029791173880962 L 69.13580246913584,6.029791173880962 L 70.37037037037041,6.455206961799144 L 71.60493827160498,6.668685583841441 L 72.83950617283955,6.882164205883791 L 74.07407407407412,7.095642827926088 L 75.30864197530869,7.309121449968387 L 76.54320987654326,7.097184284092554 L 77.77777777777783,7.097184284092554 L 79.0123456790124,7.097184284092554 L 80.24691358024697,7.097184284092554 L 81.48148148148154,7.097184284092554 L 82.71604938271611,7.097184284092554 L 83.95061728395068,7.097184284092554 L 85.18518518518525,7.998511207529619 L 86.41975308641982,8.899838130966684 L 87.65432098765439,9.80116505440375 L 88.88888888888896,10.702491977840813 L 90.12345679012353,11.603818901277828 L 91.3580246913581,11.603818901277828 L 92.59259259259267,11.603818901277828 L 93.82716049382724,11.603818901277828 L 95.0617283950618,11.603818901277828 L 96.29629629629638,11.603818901277828 L 97.53086419753095,11.603818901277828 L 98.76543209876552,11.603818901277828 L 100.00000000000009,11.603818901277828 L 101.23456790123466,11.603818901277828 L 102.46913580246922,11.142051787880174 L 103.7037037037038,10.287370434660744 L 104.93827160493836,9.432689081441314 L 106.17283950617293,8.578007728221884 L 107.4074074074075,7.723326375002454 L 108.64197530864207,7.33041213518073 L 109.87654320987664,7.33041213518073 L 111.11111111111121,7.33041213518073 L 112.34567901234578,7.33041213518073 L 113.58024691358035,7.33041213518073 L 114.81481481481492,7.33041213518073 L 116.0493827160495,7.33041213518073 L 117.28395061728406,7.33041213518073 L 118.51851851851863,7.33041213518073 L 119.7530864197532,7.33041213518073 L 120.98765432098777,7.33041213518073 L 122.22222222222234,7.33041213518073 L 123.45679012345691,7.33041213518073 L 124.69135802469148,7.33041213518073 L 125.92592592592605,7.33041213518073 L 127.16049382716062,7.33041213518073 L 128.39506172839518,7.33041213518073 L 129.62962962962973,7.33041213518073 L 130.8641975308643,7.33041213518073 L 132.09876543209884,7.33041213518073 L 133.3333333333334,7.33041213518073 L 134.56790123456796,7.33041213518073 L 135.8024691358025,7.33041213518073 L 137.03703703703707,7.33041213518073 L 138.27160493827162,7.33041213518073 L 139.50617283950618,7.33041213518073 L 140.74074074074073,7.33041213518073 L 141.9753086419753,7.33041213518073 L 143.20987654320984,7.33041213518073 L 144.4444444444444,7.33041213518073 L 145.67901234567896,7.33041213518073 L 146.9135802469135,7.33041213518073 L 148.14814814814807,7.33041213518073 L 149.38271604938262,7.33041213518073 L 150.61728395061718,7.33041213518073 L 151.85185185185173,7.33041213518073 L 153.0864197530863,7.33041213518073 L 154.32098765432085,7.33041213518073 L 155.5555555555554,7.33041213518073 L 156.79012345678996,7.33041213518073 L 158.0246913580245,7.33041213518073 L 159.25925925925907,7.33041213518073 L 160.49382716049362,7.33041213518073 L 161.72839506172818,7.33041213518073 L 162.96296296296273,7.33041213518073 L 164.1975308641973,7.33041213518073 L 165.43209876543185,7.33041213518073 L 166.6666666666664,7.33041213518073 L 167.90123456790096,7.33041213518073 L 169.1358024691355,7.33041213518073 L 170.37037037037007,7.33041213518073 L 171.60493827160462,8.006437088109664 L 172.83950617283918,8.682462041038542 L 174.07407407407374,9.72659949059812 L 175.3086419753083,10.770736940157699 L 176.54320987654285,13.188053312303476 L 177.7777777777774,14.929344731520368 L 179.01234567901196,16.670636150737266 L 180.2469135802465,22.085796240810904 L 181.48148148148107,27.500956330884588 L 182.71604938271562,31.542937498371966 L 183.95061728395018,35.5849186658594 L 185.18518518518474,39.62689983334679 L 186.4197530864193,39.62689983334679 L 187.65432098765385,39.62689983334679 L 188.8888888888884,39.62689983334679 L 190.12345679012296,39.62689983334679 L 191.3580246913575,39.62689983334679 L 192.59259259259207,39.62689983334679 L 193.82716049382663,39.62689983334679 L 195.06172839506118,39.62689983334679 L 196.29629629629574,39.62689983334679 L 197.5308641975303,39.62689983334679 L 198.76543209876485,39.62689983334684 L 199.9999999999994,47.5 L 0,47.5 &#10;      L 0,47.5 &#10;      Z&#10;    " fill="url(#areaGradient)"/></svg>