<svg xmlns="http://www.w3.org/2000/svg" width="200" height="50" viewBox="0 0 200 50" shape-rendering="auto"><polyline points="0,32.40452649701692 1.2345679012345678,32.35788743327108 2.4691358024691357,32.45743353629673 3.7037037037037033,32.55899819373294 4.938271604938271,32.68208691530264 6.172839506172839,32.87059771349821 7.407407407407407,33.150272385484314 8.641975308641975,33.37470267781947 9.876543209876543,33.530077495589225 11.11111111111111,33.623302386251 12.345679012345679,33.68199953963027 13.580246913580247,33.66818844471734 14.814814814814815,33.13991406429818 16.049382716049383,32.68414793217236 17.28395061728395,32.22838180004616 18.518518518518515,31.82786004757205 19.75308641975308,31.489488222205527 20.987654320987648,33.21587508632024 22.222222222222214,34.90428143942373 23.45679012345678,36.592687792527215 24.691358024691347,38.225849765978616 25.925925925925913,39.79686181232241 27.16049382716048,39.80376735977868 28.395061728395046,40.83269393079078 29.629629629629612,41.86162050180325 30.86419753086418,43.58800736591758 32.098765432098745,45.314394230031915 33.333333333333314,47.03387554668958 34.567901234567884,47.03387554668958 35.802469135802454,47.03387554668958 37.037037037037024,46.33641525358774 38.271604938271594,45.6389549604855 39.50617283950616,44.25784546919357 40.74074074074073,43.567290723548005 41.9753086419753,42.88364152535869 43.20987654320987,42.21035064835399 44.44444444444444,41.537059771349284 45.67901234567901,41.573313895496156 46.91358024691358,41.61474718023493 48.14814814814815,41.64927491751744 49.38271604938272,41.65618046497409 50.61728395061729,41.663086012430746 51.85185185185186,41.6510013043818 53.08641975308643,41.633737435740926 54.320987654321,41.61647356709967 55.55555555555557,41.61647356709967 56.79012345679014,41.61647356709967 58.02469135802471,41.62337911455594 59.25925925925928,41.640642983197196 60.49382716049385,41.657906851838064 61.72839506172842,41.67517072047932 62.96296296296299,41.6924345891202 64.19753086419756,41.70279291030518 65.43209876543213,41.737320647587296 66.6666666666667,41.771848384869806 67.90123456790127,41.80637612215193 69.13580246913584,41.840903859434064 70.37037037037041,41.87543159671618 71.60493827160498,41.87543159671618 72.83950617283955,41.885789917901164 74.07407407407412,41.89614823908615 75.30864197530869,41.90650656027113 76.54320987654326,41.88233714417323 77.77777777777783,41.858167728075315 79.0123456790124,41.82363999079243 80.24691358024697,43.13569400751894 81.48148148148154,44.44774802424584 82.71604938271611,47.5 83.95061728395068,39.50337604542301 85.18518518518525,31.6448630399749 86.41975308641982,22.474296017800658 87.65432098765439,13.303728995626413 88.88888888888896,2.500000000000002 90.12345679012353,2.8142024092686095 91.3580246913581,2.9902938694083314 92.59259259259267,3.1318575922659275 93.82716049382724,3.273421315122757 95.0617283950618,3.3770045269695173 96.29629629629638,3.75335686334687 97.53086419753095,4.129709199724224 98.76543209876552,5.1966162817467705 100.00000000000009,5.572968618124124 101.23456790123466,5.914793217219351 102.46913580246922,5.914793217219351 103.7037037037038,5.914793217219351 104.93827160493836,5.239775953351057 106.17283950617293,5.255313435127956 107.4074074074075,5.270850916905237 108.64197530864207,5.286388433209494 109.87654320987664,5.6316658060326645 111.11111111111121,5.961405697078938 112.34567901234578,6.44824679275894 113.58024691358035,6.935087888438941 114.81481481481492,7.440919205097195 116.0493827160495,7.6204634389652455 117.28395061728406,7.8656103736692184 118.51851851851863,7.953656103738695 119.7530864197532,8.041701833808172 120.98765432098777,8.110757308372808 122.22222222222234,8.207434972763295 123.45679012345691,8.238509936317094 124.69135802469148,8.338640374435908 125.92592592592605,8.373168111718035 127.16049382716062,8.407695849000161 128.39506172839518,8.411148622728104 129.62962962962973,8.412702370905563 130.8641975308643,8.345200644518773 132.09876543209884,8.343301618968288 133.3333333333334,8.374376582522087 134.56790123456796,8.408904319804595 135.8024691358025,8.445331082637205 137.03703703703707,8.478305071745705 138.27160493827162,8.54580679813633 139.50617283950618,8.587240082875493 140.74074074074073,8.62522059388633 141.9753086419753,8.818575922666922 143.20987654320984,9.015384025172393 144.4444444444444,9.177664390395355 145.67901234567896,9.519488989489815 146.9135802469135,9.864766362312604 148.14814814814807,10.054668917365252 149.38271604938262,10.244571472417901 150.61728395061718,10.437926801198877 151.85185185185173,10.444832348655149 153.0864197530863,10.44137960324262 154.32098765432085,10.439653216381714 155.5555555555554,10.437926829520809 156.79012345678996,10.43274766892851 158.0246913580245,10.42756850833966 159.25925925925907,10.429294866890901 160.49382716049362,10.429329394628356 161.72839506172818,10.42939845010327 162.96296296296273,10.429467505581245 164.1975308641973,10.769565717811734 165.43209876543185,11.109663930042222 166.6666666666664,12.17481009746296 167.90123456790096,13.302071664251152 169.1358024691355,18.866147471812983 170.37037037037007,24.090194122619234 171.60493827160462,29.3142407734251 172.83950617283918,33.813204941302885 174.07407407407374,38.25001918207652 175.3086419753083,38.25001918207652 176.54320987654285,38.25001918207652 177.7777777777774,40.28025013427524 179.01234567901196,42.31048108647358 180.2469135802465,42.31048108647358 181.48148148148107,42.3139338602019 182.71604938271562,42.3139338602019 183.95061728395018,36.440765748485404 185.18518518518474,29.566293255583044 186.4197530864193,25.0328013504193 187.65432098765385,20.4959257270056 188.8888888888884,15.979698035763958 190.12345679012296,15.330576574860997 191.3580246913575,15.68275949522324 192.59259259259207,15.734551101147003 193.82716049382663,15.78630817936398 195.06172839506118,15.853636921786858 196.29629629629574,15.8985229802532 197.5308641975303,15.943409038640574 198.76543209876485,16.01415637230566 199.9999999999994,NaN " stroke="#1fad57" stroke-width="2" stroke-opacity="1" fill="none" fill-opacity="0" stroke-linejoin="round" vector-effect="non-scaling-stroke"/><defs><linearGradient id="areaGradient" x1="0%" y1="0%" x2="0%" y2="100%"><stop offset="0%" stop-color="#1fad57" stop-opacity="0.25"/><stop offset="100%" stop-color="#1fad57" stop-opacity="0"/></linearGradient></defs><path d="&#10;      M 0,47.5 &#10;      L 0,32.40452649701692 &#10;      L 0,32.40452649701692 L 1.2345679012345678,32.35788743327108 L 2.4691358024691357,32.45743353629673 L 3.7037037037037033,32.55899819373294 L 4.938271604938271,32.68208691530264 L 6.172839506172839,32.87059771349821 L 7.407407407407407,33.150272385484314 L 8.641975308641975,33.37470267781947 L 9.876543209876543,33.530077495589225 L 11.11111111111111,33.623302386251 L 12.345679012345679,33.68199953963027 L 13.580246913580247,33.66818844471734 L 14.814814814814815,33.13991406429818 L 16.049382716049383,32.68414793217236 L 17.28395061728395,32.22838180004616 L 18.518518518518515,31.82786004757205 L 19.75308641975308,31.489488222205527 L 20.987654320987648,33.21587508632024 L 22.222222222222214,34.90428143942373 L 23.45679012345678,36.592687792527215 L 24.691358024691347,38.225849765978616 L 25.925925925925913,39.79686181232241 L 27.16049382716048,39.80376735977868 L 28.395061728395046,40.83269393079078 L 29.629629629629612,41.86162050180325 L 30.86419753086418,43.58800736591758 L 32.098765432098745,45.314394230031915 L 33.333333333333314,47.03387554668958 L 34.567901234567884,47.03387554668958 L 35.802469135802454,47.03387554668958 L 37.037037037037024,46.33641525358774 L 38.271604938271594,45.6389549604855 L 39.50617283950616,44.25784546919357 L 40.74074074074073,43.567290723548005 L 41.9753086419753,42.88364152535869 L 43.20987654320987,42.21035064835399 L 44.44444444444444,41.537059771349284 L 45.67901234567901,41.573313895496156 L 46.91358024691358,41.61474718023493 L 48.14814814814815,41.64927491751744 L 49.38271604938272,41.65618046497409 L 50.61728395061729,41.663086012430746 L 51.85185185185186,41.6510013043818 L 53.08641975308643,41.633737435740926 L 54.320987654321,41.61647356709967 L 55.55555555555557,41.61647356709967 L 56.79012345679014,41.61647356709967 L 58.02469135802471,41.62337911455594 L 59.25925925925928,41.640642983197196 L 60.49382716049385,41.657906851838064 L 61.72839506172842,41.67517072047932 L 62.96296296296299,41.6924345891202 L 64.19753086419756,41.70279291030518 L 65.43209876543213,41.737320647587296 L 66.6666666666667,41.771848384869806 L 67.90123456790127,41.80637612215193 L 69.13580246913584,41.840903859434064 L 70.37037037037041,41.87543159671618 L 71.60493827160498,41.87543159671618 L 72.83950617283955,41.885789917901164 L 74.07407407407412,41.89614823908615 L 75.30864197530869,41.90650656027113 L 76.54320987654326,41.88233714417323 L 77.77777777777783,41.858167728075315 L 79.0123456790124,41.82363999079243 L 80.24691358024697,43.13569400751894 L 81.48148148148154,44.44774802424584 L 82.71604938271611,47.5 L 83.95061728395068,39.50337604542301 L 85.18518518518525,31.6448630399749 L 86.41975308641982,22.474296017800658 L 87.65432098765439,13.303728995626413 L 88.88888888888896,2.500000000000002 L 90.12345679012353,2.8142024092686095 L 91.3580246913581,2.9902938694083314 L 92.59259259259267,3.1318575922659275 L 93.82716049382724,3.273421315122757 L 95.0617283950618,3.3770045269695173 L 96.29629629629638,3.75335686334687 L 97.53086419753095,4.129709199724224 L 98.76543209876552,5.1966162817467705 L 100.00000000000009,5.572968618124124 L 101.23456790123466,5.914793217219351 L 102.46913580246922,5.914793217219351 L 103.7037037037038,5.914793217219351 L 104.93827160493836,5.239775953351057 L 106.17283950617293,5.255313435127956 L 107.4074074074075,5.270850916905237 L 108.64197530864207,5.286388433209494 L 109.87654320987664,5.6316658060326645 L 111.11111111111121,5.961405697078938 L 112.34567901234578,6.44824679275894 L 113.58024691358035,6.935087888438941 L 114.81481481481492,7.440919205097195 L 116.0493827160495,7.6204634389652455 L 117.28395061728406,7.8656103736692184 L 118.51851851851863,7.953656103738695 L 119.7530864197532,8.041701833808172 L 120.98765432098777,8.110757308372808 L 122.22222222222234,8.207434972763295 L 123.45679012345691,8.238509936317094 L 124.69135802469148,8.338640374435908 L 125.92592592592605,8.373168111718035 L 127.16049382716062,8.407695849000161 L 128.39506172839518,8.411148622728104 L 129.62962962962973,8.412702370905563 L 130.8641975308643,8.345200644518773 L 132.09876543209884,8.343301618968288 L 133.3333333333334,8.374376582522087 L 134.56790123456796,8.408904319804595 L 135.8024691358025,8.445331082637205 L 137.03703703703707,8.478305071745705 L 138.27160493827162,8.54580679813633 L 139.50617283950618,8.587240082875493 L 140.74074074074073,8.62522059388633 L 141.9753086419753,8.818575922666922 L 143.20987654320984,9.015384025172393 L 144.4444444444444,9.177664390395355 L 145.67901234567896,9.519488989489815 L 146.9135802469135,9.864766362312604 L 148.14814814814807,10.054668917365252 L 149.38271604938262,10.244571472417901 L 150.61728395061718,10.437926801198877 L 151.85185185185173,10.444832348655149 L 153.0864197530863,10.44137960324262 L 154.32098765432085,10.439653216381714 L 155.5555555555554,10.437926829520809 L 156.79012345678996,10.43274766892851 L 158.0246913580245,10.42756850833966 L 159.25925925925907,10.429294866890901 L 160.49382716049362,10.429329394628356 L 161.72839506172818,10.42939845010327 L 162.96296296296273,10.429467505581245 L 164.1975308641973,10.769565717811734 L 165.43209876543185,11.109663930042222 L 166.6666666666664,12.17481009746296 L 167.90123456790096,13.302071664251152 L 169.1358024691355,18.866147471812983 L 170.37037037037007,24.090194122619234 L 171.60493827160462,29.3142407734251 L 172.83950617283918,33.813204941302885 L 174.07407407407374,38.25001918207652 L 175.3086419753083,38.25001918207652 L 176.54320987654285,38.25001918207652 L 177.7777777777774,40.28025013427524 L 179.01234567901196,42.31048108647358 L 180.2469135802465,42.31048108647358 L 181.48148148148107,42.3139338602019 L 182.71604938271562,42.3139338602019 L 183.95061728395018,36.440765748485404 L 185.18518518518474,29.566293255583044 L 186.4197530864193,25.0328013504193 L 187.65432098765385,20.4959257270056 L 188.8888888888884,15.979698035763958 L 190.12345679012296,15.330576574860997 L 191.3580246913575,15.68275949522324 L 192.59259259259207,15.734551101147003 L 193.82716049382663,15.78630817936398 L 195.06172839506118,15.853636921786858 L 196.29629629629574,15.8985229802532 L 197.5308641975303,15.943409038640574 L 198.76543209876485,16.01415637230566 L 199.9999999999994,47.5 L 0,47.5 &#10;      L 0,47.5 &#10;      Z&#10;    " fill="url(#areaGradient)"/></svg>