<svg xmlns="http://www.w3.org/2000/svg" width="200" height="50" viewBox="0 0 200 50" shape-rendering="auto"><polyline points="0,25.000000000000004 1.2345679012345678,25.000000000000004 2.4691358024691357,25.000000000000004 3.7037037037037033,25.000000000000004 4.938271604938271,25.000000000000004 6.172839506172839,25.000000000000004 7.407407407407407,25.000000000000004 8.641975308641975,25.000000000000004 9.876543209876543,25.000000000000004 11.11111111111111,25.000000000000004 12.345679012345679,25.000000000000004 13.580246913580247,25.000000000000004 14.814814814814815,25.000000000000004 16.049382716049383,25.000000000000004 17.28395061728395,25.000000000000004 18.518518518518515,25.000000000000004 19.75308641975308,25.000000000000004 20.987654320987648,25.000000000000004 22.222222222222214,25.000000000000004 23.45679012345678,25.000000000000004 24.691358024691347,25.000000000000004 25.925925925925913,25.000000000000004 27.16049382716048,25.000000000000004 28.395061728395046,25.000000000000004 29.629629629629612,25.000000000000004 30.86419753086418,25.000000000000004 32.098765432098745,25.000000000000004 33.333333333333314,25.000000000000004 34.567901234567884,25.000000000000004 35.802469135802454,25.000000000000004 37.037037037037024,25.000000000000004 38.271604938271594,25.000000000000004 39.50617283950616,25.000000000000004 40.74074074074073,25.000000000000004 41.9753086419753,25.000000000000004 43.20987654320987,25.000000000000004 44.44444444444444,25.000000000000004 45.67901234567901,25.000000000000004 46.91358024691358,25.000000000000004 48.14814814814815,25.000000000000004 49.38271604938272,25.000000000000004 50.61728395061729,25.000000000000004 51.85185185185186,25.000000000000004 53.08641975308643,25.000000000000004 54.320987654321,25.000000000000004 55.55555555555557,25.000000000000004 56.79012345679014,25.000000000000004 58.02469135802471,25.000000000000004 59.25925925925928,25.000000000000004 60.49382716049385,25.000000000000004 61.72839506172842,25.000000000000004 62.96296296296299,25.000000000000004 64.19753086419756,25.000000000000004 65.43209876543213,25.000000000000004 66.6666666666667,25.000000000000004 67.90123456790127,25.000000000000004 69.13580246913584,25.000000000000004 70.37037037037041,25.000000000000004 71.60493827160498,25.000000000000004 72.83950617283955,25.000000000000004 74.07407407407412,25.000000000000004 75.30864197530869,25.000000000000004 76.54320987654326,25.000000000000004 77.77777777777783,25.000000000000004 79.0123456790124,25.000000000000004 80.24691358024697,25.000000000000004 81.48148148148154,25.000000000000004 82.71604938271611,25.000000000000004 83.95061728395068,25.000000000000004 85.18518518518525,25.000000000000004 86.41975308641982,25.000000000000004 87.65432098765439,25.000000000000004 88.88888888888896,25.000000000000004 90.12345679012353,25.000000000000004 91.3580246913581,25.000000000000004 92.59259259259267,25.000000000000004 93.82716049382724,25.000000000000004 95.0617283950618,25.000000000000004 96.29629629629638,25.000000000000004 97.53086419753095,25.000000000000004 98.76543209876552,25.000000000000004 100.00000000000009,25.000000000000004 101.23456790123466,25.000000000000004 102.46913580246922,25.000000000000004 103.7037037037038,25.000000000000004 104.93827160493836,25.000000000000004 106.17283950617293,25.000000000000004 107.4074074074075,25.000000000000004 108.64197530864207,25.000000000000004 109.87654320987664,25.000000000000004 111.11111111111121,25.000000000000004 112.34567901234578,25.000000000000004 113.58024691358035,25.000000000000004 114.81481481481492,25.000000000000004 116.0493827160495,25.000000000000004 117.28395061728406,25.000000000000004 118.51851851851863,25.000000000000004 119.7530864197532,25.000000000000004 120.98765432098777,25.000000000000004 122.22222222222234,25.000000000000004 123.45679012345691,25.000000000000004 124.69135802469148,25.000000000000004 125.92592592592605,25.000000000000004 127.16049382716062,25.000000000000004 128.39506172839518,25.000000000000004 129.62962962962973,25.000000000000004 130.8641975308643,25.000000000000004 132.09876543209884,25.000000000000004 133.3333333333334,25.000000000000004 134.56790123456796,25.000000000000004 135.8024691358025,25.000000000000004 137.03703703703707,25.000000000000004 138.27160493827162,25.000000000000004 139.50617283950618,25.000000000000004 140.74074074074073,25.000000000000004 141.9753086419753,25.000000000000004 143.20987654320984,25.000000000000004 144.4444444444444,25.000000000000004 145.67901234567896,25.000000000000004 146.9135802469135,25.000000000000004 148.14814814814807,25.000000000000004 149.38271604938262,25.000000000000004 150.61728395061718,25.000000000000004 151.85185185185173,25.000000000000004 153.0864197530863,25.000000000000004 154.32098765432085,25.000000000000004 155.5555555555554,25.000000000000004 156.79012345678996,25.000000000000004 158.0246913580245,25.000000000000004 159.25925925925907,25.000000000000004 160.49382716049362,25.000000000000004 161.72839506172818,25.000000000000004 162.96296296296273,25.000000000000004 164.1975308641973,25.000000000000004 165.43209876543185,25.000000000000004 166.6666666666664,25.000000000000004 167.90123456790096,25.000000000000004 169.1358024691355,25.000000000000004 170.37037037037007,25.000000000000004 171.60493827160462,25.000000000000004 172.83950617283918,25.000000000000004 174.07407407407374,25.000000000000004 175.3086419753083,25.000000000000004 176.54320987654285,25.000000000000004 177.7777777777774,25.000000000000004 179.01234567901196,25.000000000000004 180.2469135802465,25.000000000000004 181.48148148148107,25.000000000000004 182.71604938271562,25.000000000000004 183.95061728395018,25.000000000000004 185.18518518518474,25.000000000000004 186.4197530864193,25.000000000000004 187.65432098765385,25.000000000000004 188.8888888888884,25.000000000000004 190.12345679012296,25.000000000000004 191.3580246913575,25.000000000000004 192.59259259259207,25.000000000000004 193.82716049382663,25.000000000000004 195.06172839506118,25.000000000000004 196.29629629629574,25.000000000000004 197.5308641975303,25.000000000000004 198.76543209876485,25.000000000000004 199.9999999999994,NaN " stroke="#998ca6" stroke-width="2" stroke-opacity="1" fill="none" fill-opacity="0" stroke-linejoin="round" vector-effect="non-scaling-stroke"/><defs><linearGradient id="areaGradient" x1="0%" y1="0%" x2="0%" y2="100%"><stop offset="0%" stop-color="#998ca6" stop-opacity="0.25"/><stop offset="100%" stop-color="#998ca6" stop-opacity="0"/></linearGradient></defs><path d="&#10;      M 0,25.000000000000004 &#10;      L 0,25.000000000000004 &#10;      L 0,25.000000000000004 L 1.2345679012345678,25.000000000000004 L 2.4691358024691357,25.000000000000004 L 3.7037037037037033,25.000000000000004 L 4.938271604938271,25.000000000000004 L 6.172839506172839,25.000000000000004 L 7.407407407407407,25.000000000000004 L 8.641975308641975,25.000000000000004 L 9.876543209876543,25.000000000000004 L 11.11111111111111,25.000000000000004 L 12.345679012345679,25.000000000000004 L 13.580246913580247,25.000000000000004 L 14.814814814814815,25.000000000000004 L 16.049382716049383,25.000000000000004 L 17.28395061728395,25.000000000000004 L 18.518518518518515,25.000000000000004 L 19.75308641975308,25.000000000000004 L 20.987654320987648,25.000000000000004 L 22.222222222222214,25.000000000000004 L 23.45679012345678,25.000000000000004 L 24.691358024691347,25.000000000000004 L 25.925925925925913,25.000000000000004 L 27.16049382716048,25.000000000000004 L 28.395061728395046,25.000000000000004 L 29.629629629629612,25.000000000000004 L 30.86419753086418,25.000000000000004 L 32.098765432098745,25.000000000000004 L 33.333333333333314,25.000000000000004 L 34.567901234567884,25.000000000000004 L 35.802469135802454,25.000000000000004 L 37.037037037037024,25.000000000000004 L 38.271604938271594,25.000000000000004 L 39.50617283950616,25.000000000000004 L 40.74074074074073,25.000000000000004 L 41.9753086419753,25.000000000000004 L 43.20987654320987,25.000000000000004 L 44.44444444444444,25.000000000000004 L 45.67901234567901,25.000000000000004 L 46.91358024691358,25.000000000000004 L 48.14814814814815,25.000000000000004 L 49.38271604938272,25.000000000000004 L 50.61728395061729,25.000000000000004 L 51.85185185185186,25.000000000000004 L 53.08641975308643,25.000000000000004 L 54.320987654321,25.000000000000004 L 55.55555555555557,25.000000000000004 L 56.79012345679014,25.000000000000004 L 58.02469135802471,25.000000000000004 L 59.25925925925928,25.000000000000004 L 60.49382716049385,25.000000000000004 L 61.72839506172842,25.000000000000004 L 62.96296296296299,25.000000000000004 L 64.19753086419756,25.000000000000004 L 65.43209876543213,25.000000000000004 L 66.6666666666667,25.000000000000004 L 67.90123456790127,25.000000000000004 L 69.13580246913584,25.000000000000004 L 70.37037037037041,25.000000000000004 L 71.60493827160498,25.000000000000004 L 72.83950617283955,25.000000000000004 L 74.07407407407412,25.000000000000004 L 75.30864197530869,25.000000000000004 L 76.54320987654326,25.000000000000004 L 77.77777777777783,25.000000000000004 L 79.0123456790124,25.000000000000004 L 80.24691358024697,25.000000000000004 L 81.48148148148154,25.000000000000004 L 82.71604938271611,25.000000000000004 L 83.95061728395068,25.000000000000004 L 85.18518518518525,25.000000000000004 L 86.41975308641982,25.000000000000004 L 87.65432098765439,25.000000000000004 L 88.88888888888896,25.000000000000004 L 90.12345679012353,25.000000000000004 L 91.3580246913581,25.000000000000004 L 92.59259259259267,25.000000000000004 L 93.82716049382724,25.000000000000004 L 95.0617283950618,25.000000000000004 L 96.29629629629638,25.000000000000004 L 97.53086419753095,25.000000000000004 L 98.76543209876552,25.000000000000004 L 100.00000000000009,25.000000000000004 L 101.23456790123466,25.000000000000004 L 102.46913580246922,25.000000000000004 L 103.7037037037038,25.000000000000004 L 104.93827160493836,25.000000000000004 L 106.17283950617293,25.000000000000004 L 107.4074074074075,25.000000000000004 L 108.64197530864207,25.000000000000004 L 109.87654320987664,25.000000000000004 L 111.11111111111121,25.000000000000004 L 112.34567901234578,25.000000000000004 L 113.58024691358035,25.000000000000004 L 114.81481481481492,25.000000000000004 L 116.0493827160495,25.000000000000004 L 117.28395061728406,25.000000000000004 L 118.51851851851863,25.000000000000004 L 119.7530864197532,25.000000000000004 L 120.98765432098777,25.000000000000004 L 122.22222222222234,25.000000000000004 L 123.45679012345691,25.000000000000004 L 124.69135802469148,25.000000000000004 L 125.92592592592605,25.000000000000004 L 127.16049382716062,25.000000000000004 L 128.39506172839518,25.000000000000004 L 129.62962962962973,25.000000000000004 L 130.8641975308643,25.000000000000004 L 132.09876543209884,25.000000000000004 L 133.3333333333334,25.000000000000004 L 134.56790123456796,25.000000000000004 L 135.8024691358025,25.000000000000004 L 137.03703703703707,25.000000000000004 L 138.27160493827162,25.000000000000004 L 139.50617283950618,25.000000000000004 L 140.74074074074073,25.000000000000004 L 141.9753086419753,25.000000000000004 L 143.20987654320984,25.000000000000004 L 144.4444444444444,25.000000000000004 L 145.67901234567896,25.000000000000004 L 146.9135802469135,25.000000000000004 L 148.14814814814807,25.000000000000004 L 149.38271604938262,25.000000000000004 L 150.61728395061718,25.000000000000004 L 151.85185185185173,25.000000000000004 L 153.0864197530863,25.000000000000004 L 154.32098765432085,25.000000000000004 L 155.5555555555554,25.000000000000004 L 156.79012345678996,25.000000000000004 L 158.0246913580245,25.000000000000004 L 159.25925925925907,25.000000000000004 L 160.49382716049362,25.000000000000004 L 161.72839506172818,25.000000000000004 L 162.96296296296273,25.000000000000004 L 164.1975308641973,25.000000000000004 L 165.43209876543185,25.000000000000004 L 166.6666666666664,25.000000000000004 L 167.90123456790096,25.000000000000004 L 169.1358024691355,25.000000000000004 L 170.37037037037007,25.000000000000004 L 171.60493827160462,25.000000000000004 L 172.83950617283918,25.000000000000004 L 174.07407407407374,25.000000000000004 L 175.3086419753083,25.000000000000004 L 176.54320987654285,25.000000000000004 L 177.7777777777774,25.000000000000004 L 179.01234567901196,25.000000000000004 L 180.2469135802465,25.000000000000004 L 181.48148148148107,25.000000000000004 L 182.71604938271562,25.000000000000004 L 183.95061728395018,25.000000000000004 L 185.18518518518474,25.000000000000004 L 186.4197530864193,25.000000000000004 L 187.65432098765385,25.000000000000004 L 188.8888888888884,25.000000000000004 L 190.12345679012296,25.000000000000004 L 191.3580246913575,25.000000000000004 L 192.59259259259207,25.000000000000004 L 193.82716049382663,25.000000000000004 L 195.06172839506118,25.000000000000004 L 196.29629629629574,25.000000000000004 L 197.5308641975303,25.000000000000004 L 198.76543209876485,25.000000000000004 L 199.9999999999994,25.000000000000004 L 0,25.000000000000004 &#10;      L 0,25.000000000000004 &#10;      Z&#10;    " fill="url(#areaGradient)"/></svg>