<svg xmlns="http://www.w3.org/2000/svg" width="200" height="50" viewBox="0 0 200 50" shape-rendering="auto"><polyline points="0,4.456521739130404 1.2345679012345678,2.500000000000002 2.4691358024691357,15.934782608695636 3.7037037037037033,22.652173913043455 4.938271604938271,26.682608695652142 6.172839506172839,34.35217391304354 7.407407407407407,42.80434782608698 8.641975308641975,42.80434782608707 9.876543209876543,42.80434782608707 11.11111111111111,42.80434782608707 12.345679012345679,42.80434782608707 13.580246913580247,42.80434782608707 14.814814814814815,42.80434782608707 16.049382716049383,42.80434782608707 17.28395061728395,42.80434782608707 18.518518518518515,42.80434782608707 19.75308641975308,42.80434782608707 20.987654320987648,42.80434782608707 22.222222222222214,42.80434782608707 23.45679012345678,42.80434782608707 24.691358024691347,42.80434782608707 25.925925925925913,42.80434782608707 27.16049382716048,42.80434782608707 28.395061728395046,42.80434782608707 29.629629629629612,42.80434782608707 30.86419753086418,42.80434782608707 32.098765432098745,42.80434782608707 33.333333333333314,42.80434782608707 34.567901234567884,42.80434782608707 35.802469135802454,42.80434782608707 37.037037037037024,42.80434782608707 38.271604938271594,42.80434782608707 39.50617283950616,42.80434782608707 40.74074074074073,42.80434782608707 41.9753086419753,42.80434782608707 43.20987654320987,42.80434782608707 44.44444444444444,42.80434782608707 45.67901234567901,42.80434782608707 46.91358024691358,42.80434782608707 48.14814814814815,42.80434782608707 49.38271604938272,42.80434782608707 50.61728395061729,42.80434782608707 51.85185185185186,42.80434782608707 53.08641975308643,42.80434782608707 54.320987654321,42.80434782608707 55.55555555555557,42.80434782608707 56.79012345679014,42.80434782608707 58.02469135802471,42.80434782608707 59.25925925925928,42.80434782608707 60.49382716049385,42.80434782608707 61.72839506172842,42.80434782608707 62.96296296296299,42.80434782608707 64.19753086419756,42.80434782608707 65.43209876543213,42.80434782608707 66.6666666666667,42.80434782608707 67.90123456790127,42.80434782608707 69.13580246913584,42.80434782608707 70.37037037037041,42.80434782608707 71.60493827160498,42.80434782608707 72.83950617283955,42.80434782608707 74.07407407407412,42.80434782608707 75.30864197530869,42.80434782608707 76.54320987654326,42.80434782608707 77.77777777777783,42.80434782608707 79.0123456790124,42.80434782608707 80.24691358024697,42.80434782608707 81.48148148148154,42.80434782608707 82.71604938271611,42.80434782608707 83.95061728395068,42.80434782608707 85.18518518518525,42.80434782608707 86.41975308641982,42.80434782608707 87.65432098765439,42.80434782608707 88.88888888888896,42.80434782608707 90.12345679012353,42.80434782608707 91.3580246913581,42.80434782608707 92.59259259259267,42.80434782608707 93.82716049382724,42.80434782608707 95.0617283950618,42.80434782608707 96.29629629629638,42.80434782608707 97.53086419753095,42.80434782608707 98.76543209876552,42.80434782608707 100.00000000000009,42.80434782608707 101.23456790123466,42.80434782608707 102.46913580246922,42.80434782608707 103.7037037037038,42.80434782608707 104.93827160493836,42.80434782608707 106.17283950617293,42.80434782608707 107.4074074074075,42.80434782608707 108.64197530864207,42.80434782608707 109.87654320987664,42.80434782608707 111.11111111111121,42.80434782608707 112.34567901234578,42.80434782608707 113.58024691358035,42.80434782608707 114.81481481481492,42.80434782608707 116.0493827160495,42.80434782608707 117.28395061728406,42.80434782608707 118.51851851851863,42.80434782608707 119.7530864197532,42.80434782608707 120.98765432098777,42.80434782608707 122.22222222222234,42.80434782608707 123.45679012345691,42.80434782608707 124.69135802469148,42.80434782608707 125.92592592592605,42.80434782608707 127.16049382716062,42.80434782608707 128.39506172839518,42.80434782608707 129.62962962962973,42.80434782608707 130.8641975308643,42.80434782608707 132.09876543209884,42.80434782608707 133.3333333333334,42.80434782608707 134.56790123456796,42.80434782608707 135.8024691358025,42.80434782608707 137.03703703703707,42.80434782608707 138.27160493827162,42.80434782608707 139.50617283950618,42.80434782608707 140.74074074074073,42.80434782608707 141.9753086419753,42.80434782608707 143.20987654320984,42.80434782608707 144.4444444444444,42.80434782608707 145.67901234567896,42.80434782608707 146.9135802469135,42.80434782608707 148.14814814814807,42.80434782608707 149.38271604938262,42.80434782608707 150.61728395061718,42.80434782608707 151.85185185185173,42.80434782608707 153.0864197530863,42.80434782608707 154.32098765432085,42.80434782608707 155.5555555555554,42.80434782608707 156.79012345678996,42.80434782608707 158.0246913580245,42.80434782608707 159.25925925925907,42.80434782608707 160.49382716049362,42.80434782608707 161.72839506172818,42.80434782608707 162.96296296296273,42.80434782608707 164.1975308641973,42.80434782608707 165.43209876543185,42.80434782608707 166.6666666666664,42.80434782608707 167.90123456790096,42.80434782608707 169.1358024691355,42.80434782608707 170.37037037037007,42.80434782608707 171.60493827160462,43.74347826086974 172.83950617283918,44.68260869565233 174.07407407407374,45.62173913043492 175.3086419753083,46.56086956521741 176.54320987654285,47.5 177.7777777777774,47.499999999999915 179.01234567901196,47.499999999999915 180.2469135802465,47.499999999999915 181.48148148148107,47.499999999999915 182.71604938271562,47.499999999999915 183.95061728395018,47.499999999999915 185.18518518518474,47.499999999999915 186.4197530864193,47.499999999999915 187.65432098765385,47.499999999999915 188.8888888888884,47.499999999999915 190.12345679012296,47.499999999999915 191.3580246913575,47.499999999999915 192.59259259259207,47.499999999999915 193.82716049382663,47.499999999999915 195.06172839506118,47.499999999999915 196.29629629629574,47.499999999999915 197.5308641975303,47.499999999999915 198.76543209876485,47.499999999999915 199.9999999999994,NaN " stroke="#d92626" stroke-width="2" stroke-opacity="1" fill="none" fill-opacity="0" stroke-linejoin="round" vector-effect="non-scaling-stroke"/><defs><linearGradient id="areaGradient" x1="0%" y1="0%" x2="0%" y2="100%"><stop offset="0%" stop-color="#d92626" stop-opacity="0.25"/><stop offset="100%" stop-color="#d92626" stop-opacity="0"/></linearGradient></defs><path d="&#10;      M 0,47.5 &#10;      L 0,4.456521739130404 &#10;      L 0,4.456521739130404 L 1.2345679012345678,2.500000000000002 L 2.4691358024691357,15.934782608695636 L 3.7037037037037033,22.652173913043455 L 4.938271604938271,26.682608695652142 L 6.172839506172839,34.35217391304354 L 7.407407407407407,42.80434782608698 L 8.641975308641975,42.80434782608707 L 9.876543209876543,42.80434782608707 L 11.11111111111111,42.80434782608707 L 12.345679012345679,42.80434782608707 L 13.580246913580247,42.80434782608707 L 14.814814814814815,42.80434782608707 L 16.049382716049383,42.80434782608707 L 17.28395061728395,42.80434782608707 L 18.518518518518515,42.80434782608707 L 19.75308641975308,42.80434782608707 L 20.987654320987648,42.80434782608707 L 22.222222222222214,42.80434782608707 L 23.45679012345678,42.80434782608707 L 24.691358024691347,42.80434782608707 L 25.925925925925913,42.80434782608707 L 27.16049382716048,42.80434782608707 L 28.395061728395046,42.80434782608707 L 29.629629629629612,42.80434782608707 L 30.86419753086418,42.80434782608707 L 32.098765432098745,42.80434782608707 L 33.333333333333314,42.80434782608707 L 34.567901234567884,42.80434782608707 L 35.802469135802454,42.80434782608707 L 37.037037037037024,42.80434782608707 L 38.271604938271594,42.80434782608707 L 39.50617283950616,42.80434782608707 L 40.74074074074073,42.80434782608707 L 41.9753086419753,42.80434782608707 L 43.20987654320987,42.80434782608707 L 44.44444444444444,42.80434782608707 L 45.67901234567901,42.80434782608707 L 46.91358024691358,42.80434782608707 L 48.14814814814815,42.80434782608707 L 49.38271604938272,42.80434782608707 L 50.61728395061729,42.80434782608707 L 51.85185185185186,42.80434782608707 L 53.08641975308643,42.80434782608707 L 54.320987654321,42.80434782608707 L 55.55555555555557,42.80434782608707 L 56.79012345679014,42.80434782608707 L 58.02469135802471,42.80434782608707 L 59.25925925925928,42.80434782608707 L 60.49382716049385,42.80434782608707 L 61.72839506172842,42.80434782608707 L 62.96296296296299,42.80434782608707 L 64.19753086419756,42.80434782608707 L 65.43209876543213,42.80434782608707 L 66.6666666666667,42.80434782608707 L 67.90123456790127,42.80434782608707 L 69.13580246913584,42.80434782608707 L 70.37037037037041,42.80434782608707 L 71.60493827160498,42.80434782608707 L 72.83950617283955,42.80434782608707 L 74.07407407407412,42.80434782608707 L 75.30864197530869,42.80434782608707 L 76.54320987654326,42.80434782608707 L 77.77777777777783,42.80434782608707 L 79.0123456790124,42.80434782608707 L 80.24691358024697,42.80434782608707 L 81.48148148148154,42.80434782608707 L 82.71604938271611,42.80434782608707 L 83.95061728395068,42.80434782608707 L 85.18518518518525,42.80434782608707 L 86.41975308641982,42.80434782608707 L 87.65432098765439,42.80434782608707 L 88.88888888888896,42.80434782608707 L 90.12345679012353,42.80434782608707 L 91.3580246913581,42.80434782608707 L 92.59259259259267,42.80434782608707 L 93.82716049382724,42.80434782608707 L 95.0617283950618,42.80434782608707 L 96.29629629629638,42.80434782608707 L 97.53086419753095,42.80434782608707 L 98.76543209876552,42.80434782608707 L 100.00000000000009,42.80434782608707 L 101.23456790123466,42.80434782608707 L 102.46913580246922,42.80434782608707 L 103.7037037037038,42.80434782608707 L 104.93827160493836,42.80434782608707 L 106.17283950617293,42.80434782608707 L 107.4074074074075,42.80434782608707 L 108.64197530864207,42.80434782608707 L 109.87654320987664,42.80434782608707 L 111.11111111111121,42.80434782608707 L 112.34567901234578,42.80434782608707 L 113.58024691358035,42.80434782608707 L 114.81481481481492,42.80434782608707 L 116.0493827160495,42.80434782608707 L 117.28395061728406,42.80434782608707 L 118.51851851851863,42.80434782608707 L 119.7530864197532,42.80434782608707 L 120.98765432098777,42.80434782608707 L 122.22222222222234,42.80434782608707 L 123.45679012345691,42.80434782608707 L 124.69135802469148,42.80434782608707 L 125.92592592592605,42.80434782608707 L 127.16049382716062,42.80434782608707 L 128.39506172839518,42.80434782608707 L 129.62962962962973,42.80434782608707 L 130.8641975308643,42.80434782608707 L 132.09876543209884,42.80434782608707 L 133.3333333333334,42.80434782608707 L 134.56790123456796,42.80434782608707 L 135.8024691358025,42.80434782608707 L 137.03703703703707,42.80434782608707 L 138.27160493827162,42.80434782608707 L 139.50617283950618,42.80434782608707 L 140.74074074074073,42.80434782608707 L 141.9753086419753,42.80434782608707 L 143.20987654320984,42.80434782608707 L 144.4444444444444,42.80434782608707 L 145.67901234567896,42.80434782608707 L 146.9135802469135,42.80434782608707 L 148.14814814814807,42.80434782608707 L 149.38271604938262,42.80434782608707 L 150.61728395061718,42.80434782608707 L 151.85185185185173,42.80434782608707 L 153.0864197530863,42.80434782608707 L 154.32098765432085,42.80434782608707 L 155.5555555555554,42.80434782608707 L 156.79012345678996,42.80434782608707 L 158.0246913580245,42.80434782608707 L 159.25925925925907,42.80434782608707 L 160.49382716049362,42.80434782608707 L 161.72839506172818,42.80434782608707 L 162.96296296296273,42.80434782608707 L 164.1975308641973,42.80434782608707 L 165.43209876543185,42.80434782608707 L 166.6666666666664,42.80434782608707 L 167.90123456790096,42.80434782608707 L 169.1358024691355,42.80434782608707 L 170.37037037037007,42.80434782608707 L 171.60493827160462,43.74347826086974 L 172.83950617283918,44.68260869565233 L 174.07407407407374,45.62173913043492 L 175.3086419753083,46.56086956521741 L 176.54320987654285,47.5 L 177.7777777777774,47.499999999999915 L 179.01234567901196,47.499999999999915 L 180.2469135802465,47.499999999999915 L 181.48148148148107,47.499999999999915 L 182.71604938271562,47.499999999999915 L 183.95061728395018,47.499999999999915 L 185.18518518518474,47.499999999999915 L 186.4197530864193,47.499999999999915 L 187.65432098765385,47.499999999999915 L 188.8888888888884,47.499999999999915 L 190.12345679012296,47.499999999999915 L 191.3580246913575,47.499999999999915 L 192.59259259259207,47.499999999999915 L 193.82716049382663,47.499999999999915 L 195.06172839506118,47.499999999999915 L 196.29629629629574,47.499999999999915 L 197.5308641975303,47.499999999999915 L 198.76543209876485,47.499999999999915 L 199.9999999999994,47.5 L 0,47.5 &#10;      L 0,47.5 &#10;      Z&#10;    " fill="url(#areaGradient)"/></svg>