<svg xmlns="http://www.w3.org/2000/svg" width="200" height="50" viewBox="0 0 200 50" shape-rendering="auto"><polyline points="0,37.864796152987154 1.2345679012345678,37.52972632076864 2.4691358024691357,37.41803637669588 3.7037037037037033,37.36219140465938 4.938271604938271,37.32868442143729 6.172839506172839,37.19465648854963 7.407407407407407,34.58396946564896 8.641975308641975,31.973282442748285 9.876543209876543,29.36259541984761 11.11111111111111,26.75190839694693 12.345679012345679,24.1412213740465 13.580246913580247,24.1412213740465 14.814814814814815,24.1412213740465 16.049382716049383,24.1412213740465 17.28395061728395,24.1412213740465 18.518518518518515,24.1412213740465 19.75308641975308,24.1412213740465 20.987654320987648,24.1412213740465 22.222222222222214,24.1412213740465 23.45679012345678,24.1412213740465 24.691358024691347,24.1412213740465 25.925925925925913,24.1412213740465 27.16049382716048,24.1412213740465 28.395061728395046,24.1412213740465 29.629629629629612,24.1412213740465 30.86419753086418,24.1412213740465 32.098765432098745,24.1412213740465 33.333333333333314,24.1412213740465 34.567901234567884,24.1412213740465 35.802469135802454,24.1412213740465 37.037037037037024,24.1412213740465 38.271604938271594,24.1412213740465 39.50617283950616,28.74427480916083 40.74074074074073,33.34732824427517 41.9753086419753,37.950381679389736 43.20987654320987,42.55343511450406 44.44444444444444,47.15648854961864 45.67901234567901,47.15648854961864 46.91358024691358,47.15648854961864 48.14814814814815,47.15648854961864 49.38271604938272,47.15648854961864 50.61728395061729,47.15648854961864 51.85185185185186,47.15648854961864 53.08641975308643,47.15648854961864 54.320987654321,47.15648854961864 55.55555555555557,47.15648854961864 56.79012345679014,47.15648854961864 58.02469135802471,47.15648854961864 59.25925925925928,47.22519083969482 60.49382716049385,47.29389312977099 61.72839506172842,47.36259541984741 62.96296296296299,47.431297709923584 64.19753086419756,47.5 65.43209876543213,47.5 66.6666666666667,47.5 67.90123456790127,47.5 69.13580246913584,47.5 70.37037037037041,47.5 71.60493827160498,47.5 72.83950617283955,47.5 74.07407407407412,47.5 75.30864197530869,47.5 76.54320987654326,47.5 77.77777777777783,47.5 79.0123456790124,47.5 80.24691358024697,47.5 81.48148148148154,47.5 82.71604938271611,47.5 83.95061728395068,42.759541984732834 85.18518518518525,38.0190839694659 86.41975308641982,33.278625954198986 87.65432098765439,28.53816793893207 88.88888888888896,23.797709923665145 90.12345679012353,23.797709923665145 91.3580246913581,23.797709923665145 92.59259259259267,23.797709923665145 93.82716049382724,23.797709923665145 95.0617283950618,23.797709923665145 96.29629629629638,23.797709923665145 97.53086419753095,23.797709923665145 98.76543209876552,23.797709923665145 100.00000000000009,23.797709923665145 101.23456790123466,23.797709923665145 102.46913580246922,23.797709923665145 103.7037037037038,23.797709923665145 104.93827160493836,23.797709923665145 106.17283950617293,23.797709923665145 107.4074074074075,23.797709923665145 108.64197530864207,23.797709923665145 109.87654320987664,23.797709923665145 111.11111111111121,21.667938931298654 112.34567901234578,19.53816793893241 113.58024691358035,17.40839694656592 114.81481481481492,15.278625954199674 116.0493827160495,13.148854961833429 117.28395061728406,13.148854961833429 118.51851851851863,13.148854961833429 119.7530864197532,13.148854961833429 120.98765432098777,13.148854961833429 122.22222222222234,13.148854961833429 123.45679012345691,13.148854961833429 124.69135802469148,13.148854961833429 125.92592592592605,13.148854961833429 127.16049382716062,13.148854961833429 128.39506172839518,13.148854961833429 129.62962962962973,13.148854961833429 130.8641975308643,13.148854961833429 132.09876543209884,13.148854961833429 133.3333333333334,13.148854961833429 134.56790123456796,13.148854961833429 135.8024691358025,13.2175572519096 137.03703703703707,13.286259541985773 138.27160493827162,13.35496183206219 139.50617283950618,13.492366412215025 140.74074074074073,13.629770992367614 141.9753086419753,13.698473282443787 143.20987654320984,13.767175572520204 144.4444444444444,13.835877862596378 145.67901234567896,13.835877862596378 146.9135802469135,13.835877862596378 148.14814814814807,13.835877862596378 149.38271604938262,13.835877862596378 150.61728395061718,13.835877862596378 151.85185185185173,13.835877862596378 153.0864197530863,13.835877862596378 154.32098765432085,13.835877862596378 155.5555555555554,13.835877862596378 156.79012345678996,13.835877862596378 158.0246913580245,13.904580152672795 159.25925925925907,13.904580152672795 160.49382716049362,13.904580152672795 161.72839506172818,13.904580152672795 162.96296296296273,13.904580152672795 164.1975308641973,11.568702290077054 165.43209876543185,9.301526717557975 166.6666666666664,7.03435114503865 167.90123456790096,4.767175572519326 169.1358024691355,2.500000000000002 170.37037037037007,2.500000000000002 171.60493827160462,2.500000000000002 172.83950617283918,2.500000000000002 174.07407407407374,2.500000000000002 175.3086419753083,2.500000000000002 176.54320987654285,2.500000000000002 177.7777777777774,2.500000000000002 179.01234567901196,2.500000000000002 180.2469135802465,2.500000000000002 181.48148148148107,2.500000000000002 182.71604938271562,2.500000000000002 183.95061728395018,2.500000000000002 185.18518518518474,2.500000000000002 186.4197530864193,2.500000000000002 187.65432098765385,2.500000000000002 188.8888888888884,2.500000000000002 190.12345679012296,2.500000000000002 191.3580246913575,2.500000000000002 192.59259259259207,2.500000000000002 193.82716049382663,2.500000000000002 195.06172839506118,2.500000000000002 196.29629629629574,2.500000000000002 197.5308641975303,2.500000000000002 198.76543209876485,2.5000000000017106 199.9999999999994,NaN " stroke="#1fad57" stroke-width="2" stroke-opacity="1" fill="none" fill-opacity="0" stroke-linejoin="round" vector-effect="non-scaling-stroke"/><defs><linearGradient id="areaGradient" x1="0%" y1="0%" x2="0%" y2="100%"><stop offset="0%" stop-color="#1fad57" stop-opacity="0.25"/><stop offset="100%" stop-color="#1fad57" stop-opacity="0"/></linearGradient></defs><path d="&#10;      M 0,47.5 &#10;      L 0,37.864796152987154 &#10;      L 0,37.864796152987154 L 1.2345679012345678,37.52972632076864 L 2.4691358024691357,37.41803637669588 L 3.7037037037037033,37.36219140465938 L 4.938271604938271,37.32868442143729 L 6.172839506172839,37.19465648854963 L 7.407407407407407,34.58396946564896 L 8.641975308641975,31.973282442748285 L 9.876543209876543,29.36259541984761 L 11.11111111111111,26.75190839694693 L 12.345679012345679,24.1412213740465 L 13.580246913580247,24.1412213740465 L 14.814814814814815,24.1412213740465 L 16.049382716049383,24.1412213740465 L 17.28395061728395,24.1412213740465 L 18.518518518518515,24.1412213740465 L 19.75308641975308,24.1412213740465 L 20.987654320987648,24.1412213740465 L 22.222222222222214,24.1412213740465 L 23.45679012345678,24.1412213740465 L 24.691358024691347,24.1412213740465 L 25.925925925925913,24.1412213740465 L 27.16049382716048,24.1412213740465 L 28.395061728395046,24.1412213740465 L 29.629629629629612,24.1412213740465 L 30.86419753086418,24.1412213740465 L 32.098765432098745,24.1412213740465 L 33.333333333333314,24.1412213740465 L 34.567901234567884,24.1412213740465 L 35.802469135802454,24.1412213740465 L 37.037037037037024,24.1412213740465 L 38.271604938271594,24.1412213740465 L 39.50617283950616,28.74427480916083 L 40.74074074074073,33.34732824427517 L 41.9753086419753,37.950381679389736 L 43.20987654320987,42.55343511450406 L 44.44444444444444,47.15648854961864 L 45.67901234567901,47.15648854961864 L 46.91358024691358,47.15648854961864 L 48.14814814814815,47.15648854961864 L 49.38271604938272,47.15648854961864 L 50.61728395061729,47.15648854961864 L 51.85185185185186,47.15648854961864 L 53.08641975308643,47.15648854961864 L 54.320987654321,47.15648854961864 L 55.55555555555557,47.15648854961864 L 56.79012345679014,47.15648854961864 L 58.02469135802471,47.15648854961864 L 59.25925925925928,47.22519083969482 L 60.49382716049385,47.29389312977099 L 61.72839506172842,47.36259541984741 L 62.96296296296299,47.431297709923584 L 64.19753086419756,47.5 L 65.43209876543213,47.5 L 66.6666666666667,47.5 L 67.90123456790127,47.5 L 69.13580246913584,47.5 L 70.37037037037041,47.5 L 71.60493827160498,47.5 L 72.83950617283955,47.5 L 74.07407407407412,47.5 L 75.30864197530869,47.5 L 76.54320987654326,47.5 L 77.77777777777783,47.5 L 79.0123456790124,47.5 L 80.24691358024697,47.5 L 81.48148148148154,47.5 L 82.71604938271611,47.5 L 83.95061728395068,42.759541984732834 L 85.18518518518525,38.0190839694659 L 86.41975308641982,33.278625954198986 L 87.65432098765439,28.53816793893207 L 88.88888888888896,23.797709923665145 L 90.12345679012353,23.797709923665145 L 91.3580246913581,23.797709923665145 L 92.59259259259267,23.797709923665145 L 93.82716049382724,23.797709923665145 L 95.0617283950618,23.797709923665145 L 96.29629629629638,23.797709923665145 L 97.53086419753095,23.797709923665145 L 98.76543209876552,23.797709923665145 L 100.00000000000009,23.797709923665145 L 101.23456790123466,23.797709923665145 L 102.46913580246922,23.797709923665145 L 103.7037037037038,23.797709923665145 L 104.93827160493836,23.797709923665145 L 106.17283950617293,23.797709923665145 L 107.4074074074075,23.797709923665145 L 108.64197530864207,23.797709923665145 L 109.87654320987664,23.797709923665145 L 111.11111111111121,21.667938931298654 L 112.34567901234578,19.53816793893241 L 113.58024691358035,17.40839694656592 L 114.81481481481492,15.278625954199674 L 116.0493827160495,13.148854961833429 L 117.28395061728406,13.148854961833429 L 118.51851851851863,13.148854961833429 L 119.7530864197532,13.148854961833429 L 120.98765432098777,13.148854961833429 L 122.22222222222234,13.148854961833429 L 123.45679012345691,13.148854961833429 L 124.69135802469148,13.148854961833429 L 125.92592592592605,13.148854961833429 L 127.16049382716062,13.148854961833429 L 128.39506172839518,13.148854961833429 L 129.62962962962973,13.148854961833429 L 130.8641975308643,13.148854961833429 L 132.09876543209884,13.148854961833429 L 133.3333333333334,13.148854961833429 L 134.56790123456796,13.148854961833429 L 135.8024691358025,13.2175572519096 L 137.03703703703707,13.286259541985773 L 138.27160493827162,13.35496183206219 L 139.50617283950618,13.492366412215025 L 140.74074074074073,13.629770992367614 L 141.9753086419753,13.698473282443787 L 143.20987654320984,13.767175572520204 L 144.4444444444444,13.835877862596378 L 145.67901234567896,13.835877862596378 L 146.9135802469135,13.835877862596378 L 148.14814814814807,13.835877862596378 L 149.38271604938262,13.835877862596378 L 150.61728395061718,13.835877862596378 L 151.85185185185173,13.835877862596378 L 153.0864197530863,13.835877862596378 L 154.32098765432085,13.835877862596378 L 155.5555555555554,13.835877862596378 L 156.79012345678996,13.835877862596378 L 158.0246913580245,13.904580152672795 L 159.25925925925907,13.904580152672795 L 160.49382716049362,13.904580152672795 L 161.72839506172818,13.904580152672795 L 162.96296296296273,13.904580152672795 L 164.1975308641973,11.568702290077054 L 165.43209876543185,9.301526717557975 L 166.6666666666664,7.03435114503865 L 167.90123456790096,4.767175572519326 L 169.1358024691355,2.500000000000002 L 170.37037037037007,2.500000000000002 L 171.60493827160462,2.500000000000002 L 172.83950617283918,2.500000000000002 L 174.07407407407374,2.500000000000002 L 175.3086419753083,2.500000000000002 L 176.54320987654285,2.500000000000002 L 177.7777777777774,2.500000000000002 L 179.01234567901196,2.500000000000002 L 180.2469135802465,2.500000000000002 L 181.48148148148107,2.500000000000002 L 182.71604938271562,2.500000000000002 L 183.95061728395018,2.500000000000002 L 185.18518518518474,2.500000000000002 L 186.4197530864193,2.500000000000002 L 187.65432098765385,2.500000000000002 L 188.8888888888884,2.500000000000002 L 190.12345679012296,2.500000000000002 L 191.3580246913575,2.500000000000002 L 192.59259259259207,2.500000000000002 L 193.82716049382663,2.500000000000002 L 195.06172839506118,2.500000000000002 L 196.29629629629574,2.500000000000002 L 197.5308641975303,2.500000000000002 L 198.76543209876485,2.5000000000017106 L 199.9999999999994,47.5 L 0,47.5 &#10;      L 0,47.5 &#10;      Z&#10;    " fill="url(#areaGradient)"/></svg>