<svg xmlns="http://www.w3.org/2000/svg" width="200" height="50" viewBox="0 0 200 50" shape-rendering="auto"><polyline points="0,47.5 1.2345679012345678,47.03512392852249 2.4691358024691357,46.880165238029775 3.7037037037037033,46.802685892783884 4.938271604938271,46.75619828563636 6.172839506172839,46.57024785704529 7.407407407407407,46.57024785704529 8.641975308641975,46.57024785704529 9.876543209876543,46.57024785704529 11.11111111111111,46.57024785704529 12.345679012345679,46.57024785704529 13.580246913580247,46.57024785704529 14.814814814814815,46.57024785704529 16.049382716049383,46.57024785704529 17.28395061728395,46.57024785704529 18.518518518518515,46.57024785704529 19.75308641975308,46.57024785704529 20.987654320987648,46.57024785704529 22.222222222222214,46.57024785704529 23.45679012345678,46.57024785704529 24.691358024691347,46.57024785704529 25.925925925925913,46.57024785704529 27.16049382716048,46.57024785704529 28.395061728395046,46.57024785704529 29.629629629629612,46.57024785704529 30.86419753086418,46.57024785704529 32.098765432098745,46.57024785704529 33.333333333333314,46.57024785704529 34.567901234567884,46.57024785704529 35.802469135802454,46.57024785704529 37.037037037037024,46.57024785704529 38.271604938271594,46.57024785704529 39.50617283950616,46.57024785704529 40.74074074074073,46.57024785704529 41.9753086419753,46.57024785704529 43.20987654320987,46.57024785704529 44.44444444444444,46.57024785704529 45.67901234567901,46.57024785704529 46.91358024691358,46.57024785704529 48.14814814814815,46.57024785704529 49.38271604938272,46.57024785704529 50.61728395061729,46.74649359227529 51.85185185185186,46.74649359227529 53.08641975308643,46.74649359227529 54.320987654321,46.74649359227529 55.55555555555557,46.74649359227529 56.79012345679014,46.57024785704529 58.02469135802471,46.57024785704529 59.25925925925928,46.57024785704529 60.49382716049385,46.57024785704529 61.72839506172842,46.57024785704529 62.96296296296299,46.57024785704529 64.19753086419756,46.57024785704529 65.43209876543213,46.57024785704529 66.6666666666667,46.57024785704529 67.90123456790127,46.57024785704529 69.13580246913584,46.57024785704529 70.37037037037041,46.57024785704529 71.60493827160498,46.57024785704529 72.83950617283955,46.57024785704529 74.07407407407412,46.57024785704529 75.30864197530869,46.57024785704529 76.54320987654326,46.57024785704529 77.77777777777783,46.57024785704529 79.0123456790124,46.57024785704529 80.24691358024697,46.57024785704529 81.48148148148154,46.57024785704529 82.71604938271611,46.57024785704529 83.95061728395068,46.57024785704529 85.18518518518525,46.57024785704529 86.41975308641982,46.57024785704529 87.65432098765439,46.57024785704529 88.88888888888896,46.57024785704529 90.12345679012353,46.57024785704529 91.3580246913581,46.57024785704529 92.59259259259267,46.57024785704529 93.82716049382724,46.57024785704529 95.0617283950618,46.57024785704529 96.29629629629638,46.57024785704529 97.53086419753095,46.57024785704529 98.76543209876552,46.57024785704529 100.00000000000009,46.57024785704529 101.23456790123466,46.57024785704529 102.46913580246922,46.57024785704529 103.7037037037038,46.57024785704529 104.93827160493836,46.57024785704529 106.17283950617293,46.57024785704529 107.4074074074075,46.57024785704529 108.64197530864207,46.57024785704529 109.87654320987664,46.57024785704529 111.11111111111121,46.57024785704529 112.34567901234578,46.57024785704529 113.58024691358035,46.57024785704529 114.81481481481492,46.57024785704529 116.0493827160495,46.57024785704529 117.28395061728406,41.63434484085835 118.51851851851863,36.698441824671406 119.7530864197532,28.589516218975326 120.98765432098777,20.48059061327925 122.22222222222234,12.371665007583488 123.45679012345691,9.198642418074671 124.69135802469148,5.320495862852935 125.92592592592605,4.615371897140328 127.16049382716062,3.910247931427721 128.39506172839518,3.2051239657151145 129.62962962962973,2.5000000000025073 130.8641975308643,2.5000000000025073 132.09876543209884,2.5000000000025073 133.3333333333334,2.5000000000025073 134.56790123456796,2.5000000000025073 135.8024691358025,2.5000000000025073 137.03703703703707,2.5000000000025073 138.27160493827162,2.5000000000025073 139.50617283950618,2.5000000000025073 140.74074074074073,2.5000000000025073 141.9753086419753,2.5000000000025073 143.20987654320984,2.5000000000025073 144.4444444444444,2.5000000000025073 145.67901234567896,2.5000000000025073 146.9135802469135,2.5000000000025073 148.14814814814807,2.5000000000025073 149.38271604938262,2.5000000000025073 150.61728395061718,2.5000000000025073 151.85185185185173,2.5000000000025073 153.0864197530863,3.205088709517043 154.32098765432085,3.9101774190312657 155.5555555555554,4.615266128545801 156.79012345678996,5.320354838060023 158.0246913580245,8.493377427568527 159.25925925925907,10.961311307562807 160.49382716049362,13.429245187556775 161.72839506172818,15.897179067551056 162.96296296296273,18.365148203743722 164.1975308641973,18.365183459941793 165.43209876543185,18.365218716139868 166.6666666666664,18.365253972338248 167.90123456790096,18.36528922853632 169.1358024691355,18.36528922853632 170.37037037037007,18.36528922853632 171.60493827160462,18.36528922853632 172.83950617283918,18.36528922853632 174.07407407407374,18.36528922853632 175.3086419753083,18.36528922853632 176.54320987654285,18.36528922853632 177.7777777777774,18.36528922853632 179.01234567901196,15.192231382829117 180.2469135802465,12.019173537121917 181.48148148148107,8.846115691414715 182.71604938271562,5.6730578457075165 183.95061728395018,2.5000000000003153 185.18518518518474,2.500000000000002 186.4197530864193,2.500000000000002 187.65432098765385,2.500000000000002 188.8888888888884,2.500000000000002 190.12345679012296,2.500000000000002 191.3580246913575,2.500000000000002 192.59259259259207,2.500000000000002 193.82716049382663,2.500000000000002 195.06172839506118,2.500000000000002 196.29629629629574,2.500000000000002 197.5308641975303,2.500000000000002 198.76543209876485,2.5000000000025073 199.9999999999994,NaN " stroke="#1fad57" stroke-width="2" stroke-opacity="1" fill="none" fill-opacity="0" stroke-linejoin="round" vector-effect="non-scaling-stroke"/><defs><linearGradient id="areaGradient" x1="0%" y1="0%" x2="0%" y2="100%"><stop offset="0%" stop-color="#1fad57" stop-opacity="0.25"/><stop offset="100%" stop-color="#1fad57" stop-opacity="0"/></linearGradient></defs><path d="&#10;      M 0,47.5 &#10;      L 0,47.5 &#10;      L 0,47.5 L 1.2345679012345678,47.03512392852249 L 2.4691358024691357,46.880165238029775 L 3.7037037037037033,46.802685892783884 L 4.938271604938271,46.75619828563636 L 6.172839506172839,46.57024785704529 L 7.407407407407407,46.57024785704529 L 8.641975308641975,46.57024785704529 L 9.876543209876543,46.57024785704529 L 11.11111111111111,46.57024785704529 L 12.345679012345679,46.57024785704529 L 13.580246913580247,46.57024785704529 L 14.814814814814815,46.57024785704529 L 16.049382716049383,46.57024785704529 L 17.28395061728395,46.57024785704529 L 18.518518518518515,46.57024785704529 L 19.75308641975308,46.57024785704529 L 20.987654320987648,46.57024785704529 L 22.222222222222214,46.57024785704529 L 23.45679012345678,46.57024785704529 L 24.691358024691347,46.57024785704529 L 25.925925925925913,46.57024785704529 L 27.16049382716048,46.57024785704529 L 28.395061728395046,46.57024785704529 L 29.629629629629612,46.57024785704529 L 30.86419753086418,46.57024785704529 L 32.098765432098745,46.57024785704529 L 33.333333333333314,46.57024785704529 L 34.567901234567884,46.57024785704529 L 35.802469135802454,46.57024785704529 L 37.037037037037024,46.57024785704529 L 38.271604938271594,46.57024785704529 L 39.50617283950616,46.57024785704529 L 40.74074074074073,46.57024785704529 L 41.9753086419753,46.57024785704529 L 43.20987654320987,46.57024785704529 L 44.44444444444444,46.57024785704529 L 45.67901234567901,46.57024785704529 L 46.91358024691358,46.57024785704529 L 48.14814814814815,46.57024785704529 L 49.38271604938272,46.57024785704529 L 50.61728395061729,46.74649359227529 L 51.85185185185186,46.74649359227529 L 53.08641975308643,46.74649359227529 L 54.320987654321,46.74649359227529 L 55.55555555555557,46.74649359227529 L 56.79012345679014,46.57024785704529 L 58.02469135802471,46.57024785704529 L 59.25925925925928,46.57024785704529 L 60.49382716049385,46.57024785704529 L 61.72839506172842,46.57024785704529 L 62.96296296296299,46.57024785704529 L 64.19753086419756,46.57024785704529 L 65.43209876543213,46.57024785704529 L 66.6666666666667,46.57024785704529 L 67.90123456790127,46.57024785704529 L 69.13580246913584,46.57024785704529 L 70.37037037037041,46.57024785704529 L 71.60493827160498,46.57024785704529 L 72.83950617283955,46.57024785704529 L 74.07407407407412,46.57024785704529 L 75.30864197530869,46.57024785704529 L 76.54320987654326,46.57024785704529 L 77.77777777777783,46.57024785704529 L 79.0123456790124,46.57024785704529 L 80.24691358024697,46.57024785704529 L 81.48148148148154,46.57024785704529 L 82.71604938271611,46.57024785704529 L 83.95061728395068,46.57024785704529 L 85.18518518518525,46.57024785704529 L 86.41975308641982,46.57024785704529 L 87.65432098765439,46.57024785704529 L 88.88888888888896,46.57024785704529 L 90.12345679012353,46.57024785704529 L 91.3580246913581,46.57024785704529 L 92.59259259259267,46.57024785704529 L 93.82716049382724,46.57024785704529 L 95.0617283950618,46.57024785704529 L 96.29629629629638,46.57024785704529 L 97.53086419753095,46.57024785704529 L 98.76543209876552,46.57024785704529 L 100.00000000000009,46.57024785704529 L 101.23456790123466,46.57024785704529 L 102.46913580246922,46.57024785704529 L 103.7037037037038,46.57024785704529 L 104.93827160493836,46.57024785704529 L 106.17283950617293,46.57024785704529 L 107.4074074074075,46.57024785704529 L 108.64197530864207,46.57024785704529 L 109.87654320987664,46.57024785704529 L 111.11111111111121,46.57024785704529 L 112.34567901234578,46.57024785704529 L 113.58024691358035,46.57024785704529 L 114.81481481481492,46.57024785704529 L 116.0493827160495,46.57024785704529 L 117.28395061728406,41.63434484085835 L 118.51851851851863,36.698441824671406 L 119.7530864197532,28.589516218975326 L 120.98765432098777,20.48059061327925 L 122.22222222222234,12.371665007583488 L 123.45679012345691,9.198642418074671 L 124.69135802469148,5.320495862852935 L 125.92592592592605,4.615371897140328 L 127.16049382716062,3.910247931427721 L 128.39506172839518,3.2051239657151145 L 129.62962962962973,2.5000000000025073 L 130.8641975308643,2.5000000000025073 L 132.09876543209884,2.5000000000025073 L 133.3333333333334,2.5000000000025073 L 134.56790123456796,2.5000000000025073 L 135.8024691358025,2.5000000000025073 L 137.03703703703707,2.5000000000025073 L 138.27160493827162,2.5000000000025073 L 139.50617283950618,2.5000000000025073 L 140.74074074074073,2.5000000000025073 L 141.9753086419753,2.5000000000025073 L 143.20987654320984,2.5000000000025073 L 144.4444444444444,2.5000000000025073 L 145.67901234567896,2.5000000000025073 L 146.9135802469135,2.5000000000025073 L 148.14814814814807,2.5000000000025073 L 149.38271604938262,2.5000000000025073 L 150.61728395061718,2.5000000000025073 L 151.85185185185173,2.5000000000025073 L 153.0864197530863,3.205088709517043 L 154.32098765432085,3.9101774190312657 L 155.5555555555554,4.615266128545801 L 156.79012345678996,5.320354838060023 L 158.0246913580245,8.493377427568527 L 159.25925925925907,10.961311307562807 L 160.49382716049362,13.429245187556775 L 161.72839506172818,15.897179067551056 L 162.96296296296273,18.365148203743722 L 164.1975308641973,18.365183459941793 L 165.43209876543185,18.365218716139868 L 166.6666666666664,18.365253972338248 L 167.90123456790096,18.36528922853632 L 169.1358024691355,18.36528922853632 L 170.37037037037007,18.36528922853632 L 171.60493827160462,18.36528922853632 L 172.83950617283918,18.36528922853632 L 174.07407407407374,18.36528922853632 L 175.3086419753083,18.36528922853632 L 176.54320987654285,18.36528922853632 L 177.7777777777774,18.36528922853632 L 179.01234567901196,15.192231382829117 L 180.2469135802465,12.019173537121917 L 181.48148148148107,8.846115691414715 L 182.71604938271562,5.6730578457075165 L 183.95061728395018,2.5000000000003153 L 185.18518518518474,2.500000000000002 L 186.4197530864193,2.500000000000002 L 187.65432098765385,2.500000000000002 L 188.8888888888884,2.500000000000002 L 190.12345679012296,2.500000000000002 L 191.3580246913575,2.500000000000002 L 192.59259259259207,2.500000000000002 L 193.82716049382663,2.500000000000002 L 195.06172839506118,2.500000000000002 L 196.29629629629574,2.500000000000002 L 197.5308641975303,2.500000000000002 L 198.76543209876485,2.5000000000025073 L 199.9999999999994,47.5 L 0,47.5 &#10;      L 0,47.5 &#10;      Z&#10;    " fill="url(#areaGradient)"/></svg>