<svg xmlns="http://www.w3.org/2000/svg" width="200" height="50" viewBox="0 0 200 50" shape-rendering="auto"><polyline points="0,43.8122186827093 1.2345679012345678,43.656104896900594 2.4691358024691357,43.604066968297694 3.7037037037037033,43.57804800399615 4.938271604938271,43.562436625415486 6.172839506172839,43.49999111109208 7.407407407407407,43.29999066664657 8.641975308641975,43.29999066664657 9.876543209876543,43.29999066664657 11.11111111111111,43.29999066664657 12.345679012345679,43.29999066664657 13.580246913580247,43.49999111109208 14.814814814814815,43.49999111109208 16.049382716049383,43.29999066664657 17.28395061728395,43.29999066664657 18.518518518518515,43.29999086664686 19.75308641975308,43.299991066647316 20.987654320987648,43.299991266647595 22.222222222222214,43.49999191109338 23.45679012345678,43.49999211109367 24.691358024691347,44.29999368887505 25.925925925925913,45.09999526665624 27.16049382716048,45.89999684443761 28.395061728395046,46.699998422218805 29.629629629629612,47.5 30.86419753086418,47.5 32.098765432098745,47.5 33.333333333333314,47.5 34.567901234567884,47.5 35.802469135802454,47.5 37.037037037037024,47.5 38.271604938271594,47.5 39.50617283950616,47.5 40.74074074074073,47.5 41.9753086419753,47.5 43.20987654320987,47.5 44.44444444444444,47.5 45.67901234567901,47.5 46.91358024691358,47.5 48.14814814814815,47.5 49.38271604938272,47.5 50.61728395061729,47.5 51.85185185185186,47.5 53.08641975308643,47.5 54.320987654321,47.5 55.55555555555557,47.5 56.79012345679014,47.5 58.02469135802471,47.5 59.25925925925928,46.50019777821749 60.49382716049385,45.5003955564348 61.72839506172842,44.5005933346523 62.96296296296299,43.500791112869614 64.19753086419756,42.500988891086934 65.43209876543213,42.500988891086934 66.6666666666667,42.500988891086934 67.90123456790127,40.52098449107711 69.13580246913584,38.54098009106728 70.37037037037041,36.56097569105729 71.60493827160498,34.5609712466028 72.83950617283955,32.5609668021483 74.07407407407412,32.54096675770362 75.30864197530869,32.52096671325894 76.54320987654326,32.10096577992363 77.77777777777783,31.7009648910328 79.0123456790124,31.300964002141967 80.24691358024697,30.900963113251144 81.48148148148154,30.500962224360315 82.71604938271611,30.500962224360315 83.95061728395068,30.500962224360315 85.18518518518525,30.500962224360315 86.41975308641982,30.300961779914815 87.65432098765439,30.100961335469663 88.88888888888896,24.700769335042715 90.12345679012353,19.30057733461594 91.3580246913581,13.700384889743841 92.59259259259267,8.30019288931707 93.82716049382724,2.9000008888906526 95.0617283950618,2.7000004444453274 96.29629629629638,2.500000000000002 97.53086419753095,2.500000000000002 98.76543209876552,2.500000000000002 100.00000000000009,3.5000022222271614 101.23456790123466,4.50000444445432 102.46913580246922,5.500006666681479 103.7037037037038,5.500006666681479 104.93827160493836,5.500006666681479 106.17283950617293,4.50000444445432 107.4074074074075,3.5000022222271614 108.64197530864207,2.500000000000002 109.87654320987664,2.500000000000002 111.11111111111121,2.500000000000002 112.34567901234578,2.500000000000002 113.58024691358035,2.500000000000002 114.81481481481492,2.500000000000002 116.0493827160495,2.500000000000002 117.28395061728406,2.500000000000002 118.51851851851863,2.500000000000002 119.7530864197532,2.500000000000002 120.98765432098777,2.500000000000002 122.22222222222234,2.500000000000002 123.45679012345691,2.500000000000002 124.69135802469148,2.500000000000002 125.92592592592605,2.500000000000002 127.16049382716062,2.500000000000002 128.39506172839518,2.500000000000002 129.62962962962973,2.500000000000002 130.8641975308643,2.500000000000002 132.09876543209884,2.500000000000002 133.3333333333334,2.500000000000002 134.56790123456796,2.500000000000002 135.8024691358025,2.500000000000002 137.03703703703707,2.500000000000002 138.27160493827162,2.7020004488898834 139.50617283950618,3.1020013377807114 140.74074074074073,4.104003564452071 141.9753086419753,5.106005791123431 143.20987654320984,6.126008057794909 144.4444444444444,6.944009875576505 145.67901234567896,8.543993431095673 146.9135802469135,9.54197564883413 148.14814814814807,10.539957866572587 149.38271604938262,11.519940044310927 150.61728395061718,12.499922222049266 151.85185185185173,12.499922222049266 153.0864197530863,12.499922222049266 154.32098765432085,12.499922222049266 155.5555555555554,12.519922266493761 156.79012345678996,12.539922310938259 158.0246913580245,12.559922355382934 159.25925925925907,12.579922399827607 160.49382716049362,12.599922444272282 161.72839506172818,12.59992244427246 162.96296296296273,12.59992244427246 164.1975308641973,12.59992244427246 165.43209876543185,12.59992244427246 166.6666666666664,12.59992244427246 167.90123456790096,12.59992244427246 169.1358024691355,12.59992244427246 170.37037037037007,12.59992244427246 171.60493827160462,12.59992244427246 172.83950617283918,12.59992244427246 174.07407407407374,12.59992244427246 175.3086419753083,12.59992244427246 176.54320987654285,12.59992244427246 177.7777777777774,12.59992244427246 179.01234567901196,12.601922448717016 180.2469135802465,12.603922453161573 181.48148148148107,12.605922457606129 182.71604938271562,12.607922462050684 183.95061728395018,12.609922466495062 185.18518518518474,12.609922466495062 186.4197530864193,12.609922466495062 187.65432098765385,12.627922506495183 188.8888888888884,12.645922546495301 190.12345679012296,13.625924724278141 191.3580246913575,14.6239269420611 192.59259259259207,15.821949604333529 193.82716049382663,17.001972226606014 195.06172839506118,18.181994848878325 196.29629629629574,18.40001533336809 197.5308641975303,19.400039555644362 198.76543209876485,22.60005466678836 199.9999999999994,NaN " stroke="#1fad57" stroke-width="2" stroke-opacity="1" fill="none" fill-opacity="0" stroke-linejoin="round" vector-effect="non-scaling-stroke"/><defs><linearGradient id="areaGradient" x1="0%" y1="0%" x2="0%" y2="100%"><stop offset="0%" stop-color="#1fad57" stop-opacity="0.25"/><stop offset="100%" stop-color="#1fad57" stop-opacity="0"/></linearGradient></defs><path d="&#10;      M 0,47.5 &#10;      L 0,43.8122186827093 &#10;      L 0,43.8122186827093 L 1.2345679012345678,43.656104896900594 L 2.4691358024691357,43.604066968297694 L 3.7037037037037033,43.57804800399615 L 4.938271604938271,43.562436625415486 L 6.172839506172839,43.49999111109208 L 7.407407407407407,43.29999066664657 L 8.641975308641975,43.29999066664657 L 9.876543209876543,43.29999066664657 L 11.11111111111111,43.29999066664657 L 12.345679012345679,43.29999066664657 L 13.580246913580247,43.49999111109208 L 14.814814814814815,43.49999111109208 L 16.049382716049383,43.29999066664657 L 17.28395061728395,43.29999066664657 L 18.518518518518515,43.29999086664686 L 19.75308641975308,43.299991066647316 L 20.987654320987648,43.299991266647595 L 22.222222222222214,43.49999191109338 L 23.45679012345678,43.49999211109367 L 24.691358024691347,44.29999368887505 L 25.925925925925913,45.09999526665624 L 27.16049382716048,45.89999684443761 L 28.395061728395046,46.699998422218805 L 29.629629629629612,47.5 L 30.86419753086418,47.5 L 32.098765432098745,47.5 L 33.333333333333314,47.5 L 34.567901234567884,47.5 L 35.802469135802454,47.5 L 37.037037037037024,47.5 L 38.271604938271594,47.5 L 39.50617283950616,47.5 L 40.74074074074073,47.5 L 41.9753086419753,47.5 L 43.20987654320987,47.5 L 44.44444444444444,47.5 L 45.67901234567901,47.5 L 46.91358024691358,47.5 L 48.14814814814815,47.5 L 49.38271604938272,47.5 L 50.61728395061729,47.5 L 51.85185185185186,47.5 L 53.08641975308643,47.5 L 54.320987654321,47.5 L 55.55555555555557,47.5 L 56.79012345679014,47.5 L 58.02469135802471,47.5 L 59.25925925925928,46.50019777821749 L 60.49382716049385,45.5003955564348 L 61.72839506172842,44.5005933346523 L 62.96296296296299,43.500791112869614 L 64.19753086419756,42.500988891086934 L 65.43209876543213,42.500988891086934 L 66.6666666666667,42.500988891086934 L 67.90123456790127,40.52098449107711 L 69.13580246913584,38.54098009106728 L 70.37037037037041,36.56097569105729 L 71.60493827160498,34.5609712466028 L 72.83950617283955,32.5609668021483 L 74.07407407407412,32.54096675770362 L 75.30864197530869,32.52096671325894 L 76.54320987654326,32.10096577992363 L 77.77777777777783,31.7009648910328 L 79.0123456790124,31.300964002141967 L 80.24691358024697,30.900963113251144 L 81.48148148148154,30.500962224360315 L 82.71604938271611,30.500962224360315 L 83.95061728395068,30.500962224360315 L 85.18518518518525,30.500962224360315 L 86.41975308641982,30.300961779914815 L 87.65432098765439,30.100961335469663 L 88.88888888888896,24.700769335042715 L 90.12345679012353,19.30057733461594 L 91.3580246913581,13.700384889743841 L 92.59259259259267,8.30019288931707 L 93.82716049382724,2.9000008888906526 L 95.0617283950618,2.7000004444453274 L 96.29629629629638,2.500000000000002 L 97.53086419753095,2.500000000000002 L 98.76543209876552,2.500000000000002 L 100.00000000000009,3.5000022222271614 L 101.23456790123466,4.50000444445432 L 102.46913580246922,5.500006666681479 L 103.7037037037038,5.500006666681479 L 104.93827160493836,5.500006666681479 L 106.17283950617293,4.50000444445432 L 107.4074074074075,3.5000022222271614 L 108.64197530864207,2.500000000000002 L 109.87654320987664,2.500000000000002 L 111.11111111111121,2.500000000000002 L 112.34567901234578,2.500000000000002 L 113.58024691358035,2.500000000000002 L 114.81481481481492,2.500000000000002 L 116.0493827160495,2.500000000000002 L 117.28395061728406,2.500000000000002 L 118.51851851851863,2.500000000000002 L 119.7530864197532,2.500000000000002 L 120.98765432098777,2.500000000000002 L 122.22222222222234,2.500000000000002 L 123.45679012345691,2.500000000000002 L 124.69135802469148,2.500000000000002 L 125.92592592592605,2.500000000000002 L 127.16049382716062,2.500000000000002 L 128.39506172839518,2.500000000000002 L 129.62962962962973,2.500000000000002 L 130.8641975308643,2.500000000000002 L 132.09876543209884,2.500000000000002 L 133.3333333333334,2.500000000000002 L 134.56790123456796,2.500000000000002 L 135.8024691358025,2.500000000000002 L 137.03703703703707,2.500000000000002 L 138.27160493827162,2.7020004488898834 L 139.50617283950618,3.1020013377807114 L 140.74074074074073,4.104003564452071 L 141.9753086419753,5.106005791123431 L 143.20987654320984,6.126008057794909 L 144.4444444444444,6.944009875576505 L 145.67901234567896,8.543993431095673 L 146.9135802469135,9.54197564883413 L 148.14814814814807,10.539957866572587 L 149.38271604938262,11.519940044310927 L 150.61728395061718,12.499922222049266 L 151.85185185185173,12.499922222049266 L 153.0864197530863,12.499922222049266 L 154.32098765432085,12.499922222049266 L 155.5555555555554,12.519922266493761 L 156.79012345678996,12.539922310938259 L 158.0246913580245,12.559922355382934 L 159.25925925925907,12.579922399827607 L 160.49382716049362,12.599922444272282 L 161.72839506172818,12.59992244427246 L 162.96296296296273,12.59992244427246 L 164.1975308641973,12.59992244427246 L 165.43209876543185,12.59992244427246 L 166.6666666666664,12.59992244427246 L 167.90123456790096,12.59992244427246 L 169.1358024691355,12.59992244427246 L 170.37037037037007,12.59992244427246 L 171.60493827160462,12.59992244427246 L 172.83950617283918,12.59992244427246 L 174.07407407407374,12.59992244427246 L 175.3086419753083,12.59992244427246 L 176.54320987654285,12.59992244427246 L 177.7777777777774,12.59992244427246 L 179.01234567901196,12.601922448717016 L 180.2469135802465,12.603922453161573 L 181.48148148148107,12.605922457606129 L 182.71604938271562,12.607922462050684 L 183.95061728395018,12.609922466495062 L 185.18518518518474,12.609922466495062 L 186.4197530864193,12.609922466495062 L 187.65432098765385,12.627922506495183 L 188.8888888888884,12.645922546495301 L 190.12345679012296,13.625924724278141 L 191.3580246913575,14.6239269420611 L 192.59259259259207,15.821949604333529 L 193.82716049382663,17.001972226606014 L 195.06172839506118,18.181994848878325 L 196.29629629629574,18.40001533336809 L 197.5308641975303,19.400039555644362 L 198.76543209876485,22.60005466678836 L 199.9999999999994,47.5 L 0,47.5 &#10;      L 0,47.5 &#10;      Z&#10;    " fill="url(#areaGradient)"/></svg>