<svg xmlns="http://www.w3.org/2000/svg" width="200" height="50" viewBox="0 0 200 50" shape-rendering="auto"><polyline points="0,47.5 1.2345679012345678,45.26451033526595 2.4691358024691357,44.5193471136879 3.7037037037037033,45.23331547769096 4.938271604938271,44.79202167885053 6.172839506172839,43.89739097554831 7.407407407407407,35.722012856062555 8.641975308641975,27.63360221830106 9.876543209876543,18.675951600705943 11.11111111111111,10.587975800352972 12.345679012345679,2.500000000000002 13.580246913580247,2.6304512225863443 14.814814814814815,2.673934963448432 16.049382716049383,2.7174187043105205 17.28395061728395,2.7609024451726087 18.518518518518515,2.804386186034697 19.75308641975308,2.804386186034697 20.987654320987648,2.804386186034697 22.222222222222214,2.804386186034697 23.45679012345678,5.848248046382573 24.691358024691347,8.89210990673045 25.925925925925913,11.979455507940413 27.16049382716048,15.066801109150456 28.395061728395046,18.154146710360422 29.629629629629612,18.197630451222587 30.86419753086418,18.241114192084748 32.098765432098745,18.241114192084748 33.333333333333314,18.241114192084748 34.567901234567884,18.241114192084748 35.802469135802454,18.241114192084748 37.037037037037024,18.241114192084748 38.271604938271594,18.241114192084748 39.50617283950616,18.241114192084748 40.74074074074073,18.241114192084748 41.9753086419753,18.241114192084748 43.20987654320987,18.241114192084748 44.44444444444444,18.241114192084748 45.67901234567901,18.241114192084748 46.91358024691358,18.241114192084748 48.14814814814815,18.241114192084748 49.38271604938272,18.241114192084748 50.61728395061729,18.241114192084748 51.85185185185186,18.241114192084748 53.08641975308643,18.241114192084748 54.320987654321,18.241114192084748 55.55555555555557,18.241114192084748 56.79012345679014,18.241114192084748 58.02469135802471,18.241114192084748 59.25925925925928,18.241114192084748 60.49382716049385,18.241114192084748 61.72839506172842,18.241114192084748 62.96296296296299,18.241114192084748 64.19753086419756,18.241114192084748 65.43209876543213,18.241114192084748 66.6666666666667,18.241114192084748 67.90123456790127,18.241114192084748 69.13580246913584,18.241114192084748 70.37037037037041,18.241114192084748 71.60493827160498,18.241114192084748 72.83950617283955,18.241114192084748 74.07407407407412,18.241114192084748 75.30864197530869,18.241114192084748 76.54320987654326,18.241114192084748 77.77777777777783,18.241114192084748 79.0123456790124,18.241114192084748 80.24691358024697,18.241114192084748 81.48148148148154,18.241114192084748 82.71604938271611,18.241114192084748 83.95061728395068,18.241114192084748 85.18518518518525,18.241114192084748 86.41975308641982,18.241114192084748 87.65432098765439,18.241114192084748 88.88888888888896,18.241114192084748 90.12345679012353,18.241114192084748 91.3580246913581,18.241114192084748 92.59259259259267,18.241114192084748 93.82716049382724,18.241114192084748 95.0617283950618,18.241114192084748 96.29629629629638,18.241114192084748 97.53086419753095,18.241114192084748 98.76543209876552,18.241114192084748 100.00000000000009,18.241114192084748 101.23456790123466,18.241114192084748 102.46913580246922,18.241114192084748 103.7037037037038,18.241114192084748 104.93827160493836,18.241114192084748 106.17283950617293,18.241114192084748 107.4074074074075,18.241114192084748 108.64197530864207,18.241114192084748 109.87654320987664,18.241157675825505 111.11111111111121,18.241201159566412 112.34567901234578,18.241244643307315 113.58024691358035,18.241288127048147 114.81481481481492,18.241331610789054 116.0493827160495,18.24133161078913 117.28395061728406,18.24133161078913 118.51851851851863,18.24133161078913 119.7530864197532,15.197426266700424 120.98765432098777,12.153520922611717 122.22222222222234,9.109615578523012 123.45679012345691,6.065710234434308 124.69135802469148,3.0218048903456793 125.92592592592605,3.0218048903456793 127.16049382716062,3.0218048903456793 128.39506172839518,3.0218048903456793 129.62962962962973,3.0218048903456793 130.8641975308643,3.0218048903456793 132.09876543209884,3.0218048903456793 133.3333333333334,3.0218048903456793 134.56790123456796,3.0218048903456793 135.8024691358025,3.0218048903456793 137.03703703703707,3.0218048903456793 138.27160493827162,3.0218048903456793 139.50617283950618,3.0218048903456793 140.74074074074073,3.0218048903456793 141.9753086419753,3.0218048903456793 143.20987654320984,3.0218048903456793 144.4444444444444,3.0218048903456793 145.67901234567896,3.0218048903456793 146.9135802469135,3.0218048903456793 148.14814814814807,3.0218048903456793 149.38271604938262,3.0218048903456793 150.61728395061718,3.0218048903456793 151.85185185185173,3.0218048903456793 153.0864197530863,3.0218048903456793 154.32098765432085,3.0218048903456793 155.5555555555554,3.0218048903456793 156.79012345678996,3.0218048903456793 158.0246913580245,3.0218048903456793 159.25925925925907,3.0218048903456793 160.49382716049362,3.0218048903456793 161.72839506172818,3.0218048903456793 162.96296296296273,3.1087723720698555 164.1975308641973,3.195739853794032 165.43209876543185,3.282707335518286 166.6666666666664,3.3696748172424624 167.90123456790096,3.456642298966716 169.1358024691355,3.456642298966716 170.37037037037007,3.456642298966716 171.60493827160462,3.456642298966716 172.83950617283918,3.456642298966716 174.07407407407374,3.456642298966716 175.3086419753083,3.456642298966716 176.54320987654285,3.456642298966716 177.7777777777774,3.456642298966716 179.01234567901196,3.456642298966716 180.2469135802465,3.456642298966716 181.48148148148107,3.456642298966716 182.71604938271562,3.456642298966716 183.95061728395018,3.456642298966716 185.18518518518474,3.456642298966716 186.4197530864193,3.456642298966716 187.65432098765385,3.456642298966716 188.8888888888884,3.456642298966716 190.12345679012296,3.456642298966716 191.3580246913575,3.456642298966716 192.59259259259207,3.456642298966716 193.82716049382663,3.456642298966716 195.06172839506118,3.456642298966716 196.29629629629574,3.456642298966716 197.5308641975303,3.456642298966716 198.76543209876485,3.4566422989665613 199.9999999999994,NaN " stroke="#1fad57" stroke-width="2" stroke-opacity="1" fill="none" fill-opacity="0" stroke-linejoin="round" vector-effect="non-scaling-stroke"/><defs><linearGradient id="areaGradient" x1="0%" y1="0%" x2="0%" y2="100%"><stop offset="0%" stop-color="#1fad57" stop-opacity="0.25"/><stop offset="100%" stop-color="#1fad57" stop-opacity="0"/></linearGradient></defs><path d="&#10;      M 0,47.5 &#10;      L 0,47.5 &#10;      L 0,47.5 L 1.2345679012345678,45.26451033526595 L 2.4691358024691357,44.5193471136879 L 3.7037037037037033,45.23331547769096 L 4.938271604938271,44.79202167885053 L 6.172839506172839,43.89739097554831 L 7.407407407407407,35.722012856062555 L 8.641975308641975,27.63360221830106 L 9.876543209876543,18.675951600705943 L 11.11111111111111,10.587975800352972 L 12.345679012345679,2.500000000000002 L 13.580246913580247,2.6304512225863443 L 14.814814814814815,2.673934963448432 L 16.049382716049383,2.7174187043105205 L 17.28395061728395,2.7609024451726087 L 18.518518518518515,2.804386186034697 L 19.75308641975308,2.804386186034697 L 20.987654320987648,2.804386186034697 L 22.222222222222214,2.804386186034697 L 23.45679012345678,5.848248046382573 L 24.691358024691347,8.89210990673045 L 25.925925925925913,11.979455507940413 L 27.16049382716048,15.066801109150456 L 28.395061728395046,18.154146710360422 L 29.629629629629612,18.197630451222587 L 30.86419753086418,18.241114192084748 L 32.098765432098745,18.241114192084748 L 33.333333333333314,18.241114192084748 L 34.567901234567884,18.241114192084748 L 35.802469135802454,18.241114192084748 L 37.037037037037024,18.241114192084748 L 38.271604938271594,18.241114192084748 L 39.50617283950616,18.241114192084748 L 40.74074074074073,18.241114192084748 L 41.9753086419753,18.241114192084748 L 43.20987654320987,18.241114192084748 L 44.44444444444444,18.241114192084748 L 45.67901234567901,18.241114192084748 L 46.91358024691358,18.241114192084748 L 48.14814814814815,18.241114192084748 L 49.38271604938272,18.241114192084748 L 50.61728395061729,18.241114192084748 L 51.85185185185186,18.241114192084748 L 53.08641975308643,18.241114192084748 L 54.320987654321,18.241114192084748 L 55.55555555555557,18.241114192084748 L 56.79012345679014,18.241114192084748 L 58.02469135802471,18.241114192084748 L 59.25925925925928,18.241114192084748 L 60.49382716049385,18.241114192084748 L 61.72839506172842,18.241114192084748 L 62.96296296296299,18.241114192084748 L 64.19753086419756,18.241114192084748 L 65.43209876543213,18.241114192084748 L 66.6666666666667,18.241114192084748 L 67.90123456790127,18.241114192084748 L 69.13580246913584,18.241114192084748 L 70.37037037037041,18.241114192084748 L 71.60493827160498,18.241114192084748 L 72.83950617283955,18.241114192084748 L 74.07407407407412,18.241114192084748 L 75.30864197530869,18.241114192084748 L 76.54320987654326,18.241114192084748 L 77.77777777777783,18.241114192084748 L 79.0123456790124,18.241114192084748 L 80.24691358024697,18.241114192084748 L 81.48148148148154,18.241114192084748 L 82.71604938271611,18.241114192084748 L 83.95061728395068,18.241114192084748 L 85.18518518518525,18.241114192084748 L 86.41975308641982,18.241114192084748 L 87.65432098765439,18.241114192084748 L 88.88888888888896,18.241114192084748 L 90.12345679012353,18.241114192084748 L 91.3580246913581,18.241114192084748 L 92.59259259259267,18.241114192084748 L 93.82716049382724,18.241114192084748 L 95.0617283950618,18.241114192084748 L 96.29629629629638,18.241114192084748 L 97.53086419753095,18.241114192084748 L 98.76543209876552,18.241114192084748 L 100.00000000000009,18.241114192084748 L 101.23456790123466,18.241114192084748 L 102.46913580246922,18.241114192084748 L 103.7037037037038,18.241114192084748 L 104.93827160493836,18.241114192084748 L 106.17283950617293,18.241114192084748 L 107.4074074074075,18.241114192084748 L 108.64197530864207,18.241114192084748 L 109.87654320987664,18.241157675825505 L 111.11111111111121,18.241201159566412 L 112.34567901234578,18.241244643307315 L 113.58024691358035,18.241288127048147 L 114.81481481481492,18.241331610789054 L 116.0493827160495,18.24133161078913 L 117.28395061728406,18.24133161078913 L 118.51851851851863,18.24133161078913 L 119.7530864197532,15.197426266700424 L 120.98765432098777,12.153520922611717 L 122.22222222222234,9.109615578523012 L 123.45679012345691,6.065710234434308 L 124.69135802469148,3.0218048903456793 L 125.92592592592605,3.0218048903456793 L 127.16049382716062,3.0218048903456793 L 128.39506172839518,3.0218048903456793 L 129.62962962962973,3.0218048903456793 L 130.8641975308643,3.0218048903456793 L 132.09876543209884,3.0218048903456793 L 133.3333333333334,3.0218048903456793 L 134.56790123456796,3.0218048903456793 L 135.8024691358025,3.0218048903456793 L 137.03703703703707,3.0218048903456793 L 138.27160493827162,3.0218048903456793 L 139.50617283950618,3.0218048903456793 L 140.74074074074073,3.0218048903456793 L 141.9753086419753,3.0218048903456793 L 143.20987654320984,3.0218048903456793 L 144.4444444444444,3.0218048903456793 L 145.67901234567896,3.0218048903456793 L 146.9135802469135,3.0218048903456793 L 148.14814814814807,3.0218048903456793 L 149.38271604938262,3.0218048903456793 L 150.61728395061718,3.0218048903456793 L 151.85185185185173,3.0218048903456793 L 153.0864197530863,3.0218048903456793 L 154.32098765432085,3.0218048903456793 L 155.5555555555554,3.0218048903456793 L 156.79012345678996,3.0218048903456793 L 158.0246913580245,3.0218048903456793 L 159.25925925925907,3.0218048903456793 L 160.49382716049362,3.0218048903456793 L 161.72839506172818,3.0218048903456793 L 162.96296296296273,3.1087723720698555 L 164.1975308641973,3.195739853794032 L 165.43209876543185,3.282707335518286 L 166.6666666666664,3.3696748172424624 L 167.90123456790096,3.456642298966716 L 169.1358024691355,3.456642298966716 L 170.37037037037007,3.456642298966716 L 171.60493827160462,3.456642298966716 L 172.83950617283918,3.456642298966716 L 174.07407407407374,3.456642298966716 L 175.3086419753083,3.456642298966716 L 176.54320987654285,3.456642298966716 L 177.7777777777774,3.456642298966716 L 179.01234567901196,3.456642298966716 L 180.2469135802465,3.456642298966716 L 181.48148148148107,3.456642298966716 L 182.71604938271562,3.456642298966716 L 183.95061728395018,3.456642298966716 L 185.18518518518474,3.456642298966716 L 186.4197530864193,3.456642298966716 L 187.65432098765385,3.456642298966716 L 188.8888888888884,3.456642298966716 L 190.12345679012296,3.456642298966716 L 191.3580246913575,3.456642298966716 L 192.59259259259207,3.456642298966716 L 193.82716049382663,3.456642298966716 L 195.06172839506118,3.456642298966716 L 196.29629629629574,3.456642298966716 L 197.5308641975303,3.456642298966716 L 198.76543209876485,3.4566422989665613 L 199.9999999999994,47.5 L 0,47.5 &#10;      L 0,47.5 &#10;      Z&#10;    " fill="url(#areaGradient)"/></svg>