<svg width="327" height="210" viewBox="0 0 327 210" fill="none" xmlns="http://www.w3.org/2000/svg"><g opacity=".25"><path opacity=".5" d="M23.2918 45.8079C23.2945 45.8575 23.2909 45.9079 23.2785 45.9579L22.1682 54.399C22.1122 54.6228 21.9117 54.7801 21.6811 54.7813L15.0194 54.815H15.0169 8.35514C8.12339 54.815 7.92146 54.6571 7.86547 54.4322L6.75519 45.9743C6.74241 45.9229 6.73871 45.871 6.74194 45.8202 6.31243 45.6849 6 45.283 6 44.8093 6 44.2249 6.4754 43.7495 7.05981 43.7495S8.11963 44.2249 8.11963 44.8093C8.11963 45.1385 7.96883 45.4329 7.73271 45.6275L9.12278 47.028C9.4741 47.382 9.96161 47.585 10.4604 47.585 11.0501 47.585 11.6124 47.3049 11.9664 46.8357l2.2845-3.027C14.059 43.617 13.9402 43.352 13.9402 43.0598 13.9402 42.4754 14.4156 42 15 42S16.0598 42.4754 16.0598 43.0598C16.0598 43.3432 15.9473 43.6005 15.7654 43.7908L15.7674 43.7932l2.2679 3.0353C18.3892 47.3022 18.9535 47.585 19.5449 47.585 20.0483 47.585 20.5216 47.389 20.8775 47.0331L22.2763 45.6343C22.0352 45.4398 21.8804 45.1425 21.8804 44.8093 21.8804 44.2249 22.3558 43.7495 22.9402 43.7495 23.5246 43.7495 24 44.2249 24 44.8093 24 45.2703 23.7036 45.6624 23.2918 45.8079zm-1.232 10.5884C22.0598 56.1175 21.8339 55.8916 21.5552 55.8916H8.50096c-.27872.0-.50468.225900000000003-.50468.5047V57.6075C7.99628 57.8862 8.22224 58.1121 8.50096 58.1121H21.5552C21.8339 58.1121 22.0598 57.8862 22.0598 57.6075V56.3963z" fill="#ecb613"/></g><g opacity=".25"><path opacity=".5" d="M23.2918 155.808C23.2945 155.857 23.2909 155.908 23.2785 155.958l-1.1103 8.441C22.1122 164.623 21.9117 164.78 21.6811 164.781L15.0194 164.815H15.0169 8.35514C8.12339 164.815 7.92146 164.657 7.86547 164.432l-1.11028-8.458C6.74241 155.923 6.73871 155.871 6.74194 155.82 6.31243 155.685 6 155.283 6 154.809 6 154.225 6.4754 153.75 7.05981 153.75S8.11963 154.225 8.11963 154.809C8.11963 155.138 7.96883 155.433 7.73271 155.627L9.12278 157.028C9.4741 157.382 9.96161 157.585 10.4604 157.585 11.0501 157.585 11.6124 157.305 11.9664 156.836L14.2509 153.809C14.059 153.617 13.9402 153.352 13.9402 153.06 13.9402 152.475 14.4156 152 15 152S16.0598 152.475 16.0598 153.06C16.0598 153.343 15.9473 153.6 15.7654 153.791L15.7674 153.793l2.2679 3.036C18.3892 157.302 18.9535 157.585 19.5449 157.585 20.0483 157.585 20.5216 157.389 20.8775 157.033l1.3988-1.399C22.0352 155.44 21.8804 155.142 21.8804 154.809 21.8804 154.225 22.3558 153.75 22.9402 153.75 23.5246 153.75 24 154.225 24 154.809 24 155.27 23.7036 155.662 23.2918 155.808zm-1.232 10.588C22.0598 166.118 21.8339 165.892 21.5552 165.892H8.50096C8.22224 165.892 7.99628 166.118 7.99628 166.396V167.607C7.99628 167.886 8.22224 168.112 8.50096 168.112H21.5552C21.8339 168.112 22.0598 167.886 22.0598 167.607V166.396z" fill="#ecb613"/></g><g opacity=".75"><path opacity=".5" d="M72.2918 80.8079C72.2945 80.8575 72.2909 80.9079 72.2785 80.9579L71.1682 89.399C71.1122 89.6228 70.9117 89.7801 70.6811 89.7813L64.0194 89.815H64.0169 57.3551C57.1234 89.815 56.9215 89.6571 56.8655 89.4322l-1.1103-8.4579C55.7424 80.9229 55.7387 80.871 55.7419 80.8202 55.3124 80.6849 55 80.283 55 79.8093 55 79.2249 55.4754 78.7495 56.0598 78.7495 56.6442 78.7495 57.1196 79.2249 57.1196 79.8093 57.1196 80.1385 56.9688 80.4329 56.7327 80.6275L58.1228 82.028C58.4741 82.382 58.9616 82.585 59.4604 82.585 60.0501 82.585 60.6124 82.3049 60.9664 81.8357l2.2845-3.027C63.059 78.617 62.9402 78.352 62.9402 78.0598 62.9402 77.4754 63.4156 77 64 77S65.0598 77.4754 65.0598 78.0598C65.0598 78.3432 64.9473 78.6005 64.7654 78.7908L64.7674 78.7932 67.0353 81.8285C67.3892 82.3022 67.9535 82.585 68.5449 82.585 69.0483 82.585 69.5216 82.389 69.8775 82.0331L71.2763 80.6343C71.0352 80.4398 70.8804 80.1425 70.8804 79.8093 70.8804 79.2249 71.3558 78.7495 71.9402 78.7495S73 79.2249 73 79.8093C73 80.2703 72.7036 80.6624 72.2918 80.8079zm-1.232 10.5884C71.0598 91.1175 70.8339 90.8916 70.5552 90.8916H57.501C57.2222 90.8916 56.9963 91.1175 56.9963 91.3963V92.6075C56.9963 92.8862 57.2222 93.1121 57.501 93.1121H70.5552C70.8339 93.1121 71.0598 92.8862 71.0598 92.6075V91.3963z" fill="#ecb613"/></g><g opacity=".75"><path opacity=".5" d="M72.2918 190.808C72.2945 190.857 72.2909 190.908 72.2785 190.958l-1.1103 8.441C71.1122 199.623 70.9117 199.78 70.6811 199.781L64.0194 199.815H64.0169 57.3551C57.1234 199.815 56.9215 199.657 56.8655 199.432l-1.1103-8.458C55.7424 190.923 55.7387 190.871 55.7419 190.82 55.3124 190.685 55 190.283 55 189.809 55 189.225 55.4754 188.75 56.0598 188.75 56.6442 188.75 57.1196 189.225 57.1196 189.809 57.1196 190.138 56.9688 190.433 56.7327 190.627L58.1228 192.028C58.4741 192.382 58.9616 192.585 59.4604 192.585 60.0501 192.585 60.6124 192.305 60.9664 191.836L63.2509 188.809C63.059 188.617 62.9402 188.352 62.9402 188.06 62.9402 187.475 63.4156 187 64 187S65.0598 187.475 65.0598 188.06C65.0598 188.343 64.9473 188.6 64.7654 188.791L64.7674 188.793 67.0353 191.829C67.3892 192.302 67.9535 192.585 68.5449 192.585 69.0483 192.585 69.5216 192.389 69.8775 192.033L71.2763 190.634C71.0352 190.44 70.8804 190.142 70.8804 189.809 70.8804 189.225 71.3558 188.75 71.9402 188.75S73 189.225 73 189.809C73 190.27 72.7036 190.662 72.2918 190.808zm-1.232 10.588C71.0598 201.118 70.8339 200.892 70.5552 200.892H57.501C57.2222 200.892 56.9963 201.118 56.9963 201.396V202.607C56.9963 202.886 57.2222 203.112 57.501 203.112H70.5552C70.8339 203.112 71.0598 202.886 71.0598 202.607V201.396z" fill="#ecb613"/></g><g opacity=".75"><path opacity=".5" d="M112.292 30.8079C112.295 30.8575 112.291 30.9079 112.278 30.9579l-1.11 8.4411C111.112 39.6228 110.912 39.7801 110.681 39.7813L104.019 39.815H104.017 97.3551C97.1234 39.815 96.9215 39.6571 96.8655 39.4322l-1.1103-8.4579C95.7424 30.9229 95.7387 30.871 95.7419 30.8202 95.3124 30.6849 95 30.283 95 29.8093 95 29.2249 95.4754 28.7495 96.0598 28.7495S97.1196 29.2249 97.1196 29.8093C97.1196 30.1385 96.9688 30.4329 96.7327 30.6275l1.3901 1.4005C98.4741 32.382 98.9616 32.585 99.4604 32.585 100.05 32.585 100.612 32.3049 100.966 31.8357L103.251 28.8087C103.059 28.617 102.94 28.352 102.94 28.0598 102.94 27.4754 103.416 27 104 27S105.06 27.4754 105.06 28.0598C105.06 28.3432 104.947 28.6005 104.765 28.7908L104.767 28.7932l2.268 3.0353C107.389 32.3022 107.954 32.585 108.545 32.585 109.048 32.585 109.522 32.389 109.877 32.0331l1.399-1.3988C111.035 30.4398 110.88 30.1425 110.88 29.8093 110.88 29.2249 111.356 28.7495 111.94 28.7495 112.525 28.7495 113 29.2249 113 29.8093 113 30.2703 112.704 30.6624 112.292 30.8079zM111.06 41.3963C111.06 41.1175 110.834 40.8916 110.555 40.8916H97.501C97.2222 40.8916 96.9963 41.1175 96.9963 41.3963V42.6075C96.9963 42.8862 97.2222 43.1121 97.501 43.1121h13.054C110.834 43.1121 111.06 42.8862 111.06 42.6075V41.3963z" fill="#ecb613"/></g><g opacity=".75"><path opacity=".5" d="M112.292 140.808C112.295 140.857 112.291 140.908 112.278 140.958l-1.11 8.441C111.112 149.623 110.912 149.78 110.681 149.781L104.019 149.815H104.017 97.3551C97.1234 149.815 96.9215 149.657 96.8655 149.432l-1.1103-8.458C95.7424 140.923 95.7387 140.871 95.7419 140.82 95.3124 140.685 95 140.283 95 139.809 95 139.225 95.4754 138.75 96.0598 138.75S97.1196 139.225 97.1196 139.809C97.1196 140.138 96.9688 140.433 96.7327 140.627L98.1228 142.028C98.4741 142.382 98.9616 142.585 99.4604 142.585 100.05 142.585 100.612 142.305 100.966 141.836L103.251 138.809C103.059 138.617 102.94 138.352 102.94 138.06 102.94 137.475 103.416 137 104 137S105.06 137.475 105.06 138.06C105.06 138.343 104.947 138.6 104.765 138.791L104.767 138.793l2.268 3.036C107.389 142.302 107.954 142.585 108.545 142.585 109.048 142.585 109.522 142.389 109.877 142.033l1.399-1.399C111.035 140.44 110.88 140.142 110.88 139.809 110.88 139.225 111.356 138.75 111.94 138.75 112.525 138.75 113 139.225 113 139.809 113 140.27 112.704 140.662 112.292 140.808zm-1.232 10.588C111.06 151.118 110.834 150.892 110.555 150.892H97.501C97.2222 150.892 96.9963 151.118 96.9963 151.396V152.607C96.9963 152.886 97.2222 153.112 97.501 153.112h13.054C110.834 153.112 111.06 152.886 111.06 152.607V151.396z" fill="#ecb613"/></g><path opacity=".5" d="M188.292 72.8079C188.295 72.8575 188.291 72.9079 188.278 72.9579L187.168 81.399C187.112 81.6228 186.912 81.7801 186.681 81.7813L180.019 81.815H180.017 173.355C173.123 81.815 172.921 81.6571 172.865 81.4322L171.755 72.9743C171.742 72.9229 171.739 72.871 171.742 72.8202 171.312 72.6849 171 72.283 171 71.8093 171 71.2249 171.475 70.7495 172.06 70.7495 172.644 70.7495 173.12 71.2249 173.12 71.8093 173.12 72.1385 172.969 72.4329 172.733 72.6275L174.123 74.028C174.474 74.382 174.962 74.585 175.46 74.585 176.05 74.585 176.612 74.3049 176.966 73.8357l2.285-3.027C179.059 70.617 178.94 70.352 178.94 70.0598 178.94 69.4754 179.416 69 180 69S181.06 69.4754 181.06 70.0598C181.06 70.3432 180.947 70.6005 180.765 70.7908L180.767 70.7932 183.035 73.8285C183.389 74.3022 183.954 74.585 184.545 74.585 185.048 74.585 185.522 74.389 185.877 74.0331L187.276 72.6343C187.035 72.4398 186.88 72.1425 186.88 71.8093 186.88 71.2249 187.356 70.7495 187.94 70.7495 188.525 70.7495 189 71.2249 189 71.8093 189 72.2703 188.704 72.6624 188.292 72.8079zM187.06 83.3963C187.06 83.1175 186.834 82.8916 186.555 82.8916H173.501C173.222 82.8916 172.996 83.1175 172.996 83.3963V84.6075C172.996 84.8862 173.222 85.1121 173.501 85.1121h13.054C186.834 85.1121 187.06 84.8862 187.06 84.6075V83.3963z" fill="#ecb613"/><path opacity=".5" d="M188.292 182.808C188.295 182.857 188.291 182.908 188.278 182.958L187.168 191.399C187.112 191.623 186.912 191.78 186.681 191.781L180.019 191.815H180.017 173.355C173.123 191.815 172.921 191.657 172.865 191.432L171.755 182.974C171.742 182.923 171.739 182.871 171.742 182.82 171.312 182.685 171 182.283 171 181.809 171 181.225 171.475 180.75 172.06 180.75 172.644 180.75 173.12 181.225 173.12 181.809 173.12 182.138 172.969 182.433 172.733 182.627L174.123 184.028C174.474 184.382 174.962 184.585 175.46 184.585 176.05 184.585 176.612 184.305 176.966 183.836L179.251 180.809C179.059 180.617 178.94 180.352 178.94 180.06 178.94 179.475 179.416 179 180 179S181.06 179.475 181.06 180.06C181.06 180.343 180.947 180.6 180.765 180.791L180.767 180.793l2.268 3.036C183.389 184.302 183.954 184.585 184.545 184.585 185.048 184.585 185.522 184.389 185.877 184.033l1.399-1.399C187.035 182.44 186.88 182.142 186.88 181.809 186.88 181.225 187.356 180.75 187.94 180.75 188.525 180.75 189 181.225 189 181.809 189 182.27 188.704 182.662 188.292 182.808zm-1.232 10.588C187.06 193.118 186.834 192.892 186.555 192.892H173.501C173.222 192.892 172.996 193.118 172.996 193.396V194.607C172.996 194.886 173.222 195.112 173.501 195.112h13.054C186.834 195.112 187.06 194.886 187.06 194.607V193.396z" fill="#ecb613"/><g opacity=".5"><path opacity=".5" d="M202.292 10.8079C202.295 10.8575 202.291 10.9079 202.278 10.9579L201.168 19.399C201.112 19.6228 200.912 19.7801 200.681 19.7813L194.019 19.815H194.017 187.355C187.123 19.815 186.921 19.6571 186.865 19.4322L185.755 10.9743C185.742 10.9229 185.739 10.871 185.742 10.8202 185.312 10.6849 185 10.283 185 9.80935 185 9.22493 185.475 8.74953 186.06 8.74953 186.644 8.74953 187.12 9.22493 187.12 9.80935 187.12 10.1385 186.969 10.4329 186.733 10.6275L188.123 12.028C188.474 12.382 188.962 12.585 189.46 12.585 190.05 12.585 190.612 12.3049 190.966 11.8357l2.285-3.02695C193.059 8.61697 192.94 8.35198 192.94 8.05981 192.94 7.4754 193.416 7 194 7s1.06.4754 1.06 1.05981C195.06 8.34324 194.947 8.60049 194.765 8.79085L194.767 8.7932l2.268 3.0353C197.389 12.3022 197.954 12.585 198.545 12.585 199.048 12.585 199.522 12.389 199.877 12.0331l1.399-1.3988C201.035 10.4398 200.88 10.1425 200.88 9.80935 200.88 9.22493 201.356 8.74953 201.94 8.74953 202.525 8.74953 203 9.22493 203 9.80935 203 10.2703 202.704 10.6624 202.292 10.8079zM201.06 21.3963C201.06 21.1175 200.834 20.8916 200.555 20.8916H187.501C187.222 20.8916 186.996 21.1175 186.996 21.3963v1.2112C186.996 22.8862 187.222 23.1121 187.501 23.1121h13.054C200.834 23.1121 201.06 22.8862 201.06 22.6075V21.3963z" fill="#ecb613"/></g><g opacity=".5"><path opacity=".5" d="M202.292 120.808C202.295 120.857 202.291 120.908 202.278 120.958L201.168 129.399C201.112 129.623 200.912 129.78 200.681 129.781L194.019 129.815H194.017 187.355C187.123 129.815 186.921 129.657 186.865 129.432L185.755 120.974C185.742 120.923 185.739 120.871 185.742 120.82 185.312 120.685 185 120.283 185 119.809 185 119.225 185.475 118.75 186.06 118.75 186.644 118.75 187.12 119.225 187.12 119.809 187.12 120.138 186.969 120.433 186.733 120.627L188.123 122.028C188.474 122.382 188.962 122.585 189.46 122.585 190.05 122.585 190.612 122.305 190.966 121.836l2.285-3.027C193.059 118.617 192.94 118.352 192.94 118.06 192.94 117.475 193.416 117 194 117S195.06 117.475 195.06 118.06C195.06 118.343 194.947 118.6 194.765 118.791L194.767 118.793 197.035 121.829C197.389 122.302 197.954 122.585 198.545 122.585 199.048 122.585 199.522 122.389 199.877 122.033l1.399-1.399C201.035 120.44 200.88 120.142 200.88 119.809 200.88 119.225 201.356 118.75 201.94 118.75 202.525 118.75 203 119.225 203 119.809 203 120.27 202.704 120.662 202.292 120.808zm-1.232 10.588C201.06 131.118 200.834 130.892 200.555 130.892H187.501C187.222 130.892 186.996 131.118 186.996 131.396V132.607C186.996 132.886 187.222 133.112 187.501 133.112h13.054C200.834 133.112 201.06 132.886 201.06 132.607V131.396z" fill="#ecb613"/></g><g opacity=".5"><path opacity=".5" d="M290.292 67.8079C290.295 67.8575 290.291 67.9079 290.278 67.9579L289.168 76.399C289.112 76.6228 288.912 76.7801 288.681 76.7813L282.019 76.815H282.017 275.355C275.123 76.815 274.921 76.6571 274.865 76.4322L273.755 67.9743C273.742 67.9229 273.739 67.871 273.742 67.8202 273.312 67.6849 273 67.283 273 66.8093 273 66.2249 273.475 65.7495 274.06 65.7495 274.644 65.7495 275.12 66.2249 275.12 66.8093 275.12 67.1385 274.969 67.4329 274.733 67.6275L276.123 69.028C276.474 69.382 276.962 69.585 277.46 69.585 278.05 69.585 278.612 69.3049 278.966 68.8357L281.251 65.8087C281.059 65.617 280.94 65.352 280.94 65.0598 280.94 64.4754 281.416 64 282 64S283.06 64.4754 283.06 65.0598C283.06 65.3432 282.947 65.6005 282.765 65.7908L282.767 65.7932 285.035 68.8285C285.389 69.3022 285.954 69.585 286.545 69.585 287.048 69.585 287.522 69.389 287.877 69.0331L289.276 67.6343C289.035 67.4398 288.88 67.1425 288.88 66.8093 288.88 66.2249 289.356 65.7495 289.94 65.7495 290.525 65.7495 291 66.2249 291 66.8093 291 67.2703 290.704 67.6624 290.292 67.8079zM289.06 78.3963C289.06 78.1175 288.834 77.8916 288.555 77.8916H275.501C275.222 77.8916 274.996 78.1175 274.996 78.3963V79.6075C274.996 79.8862 275.222 80.1121 275.501 80.1121h13.054C288.834 80.1121 289.06 79.8862 289.06 79.6075V78.3963z" fill="#ecb613"/></g><g opacity=".5"><path opacity=".5" d="M290.292 178.808C290.295 178.857 290.291 178.908 290.278 178.958L289.168 187.399C289.112 187.623 288.912 187.78 288.681 187.781L282.019 187.815H282.017 275.355C275.123 187.815 274.921 187.657 274.865 187.432L273.755 178.974C273.742 178.923 273.739 178.871 273.742 178.82 273.312 178.685 273 178.283 273 177.809 273 177.225 273.475 176.75 274.06 176.75 274.644 176.75 275.12 177.225 275.12 177.809 275.12 178.138 274.969 178.433 274.733 178.627L276.123 180.028C276.474 180.382 276.962 180.585 277.46 180.585 278.05 180.585 278.612 180.305 278.966 179.836L281.251 176.809C281.059 176.617 280.94 176.352 280.94 176.06 280.94 175.475 281.416 175 282 175S283.06 175.475 283.06 176.06C283.06 176.343 282.947 176.6 282.765 176.791L282.767 176.793 285.035 179.829C285.389 180.302 285.954 180.585 286.545 180.585 287.048 180.585 287.522 180.389 287.877 180.033l1.399-1.399C289.035 178.44 288.88 178.142 288.88 177.809 288.88 177.225 289.356 176.75 289.94 176.75 290.525 176.75 291 177.225 291 177.809 291 178.27 290.704 178.662 290.292 178.808zM289.06 189.396C289.06 189.118 288.834 188.892 288.555 188.892H275.501C275.222 188.892 274.996 189.118 274.996 189.396V190.607C274.996 190.886 275.222 191.112 275.501 191.112h13.054C288.834 191.112 289.06 190.886 289.06 190.607V189.396z" fill="#ecb613"/></g><g opacity=".25"><path opacity=".5" d="M320.292 27.8079C320.295 27.8575 320.291 27.9079 320.278 27.9579L319.168 36.399C319.112 36.6228 318.912 36.7801 318.681 36.7813L312.019 36.815H312.017 305.355C305.123 36.815 304.921 36.6571 304.865 36.4322L303.755 27.9743C303.742 27.9229 303.739 27.871 303.742 27.8202 303.312 27.6849 303 27.283 303 26.8093 303 26.2249 303.475 25.7495 304.06 25.7495 304.644 25.7495 305.12 26.2249 305.12 26.8093 305.12 27.1385 304.969 27.4329 304.733 27.6275L306.123 29.028C306.474 29.382 306.962 29.585 307.46 29.585 308.05 29.585 308.612 29.3049 308.966 28.8357L311.251 25.8087C311.059 25.617 310.94 25.352 310.94 25.0598 310.94 24.4754 311.416 24 312 24S313.06 24.4754 313.06 25.0598C313.06 25.3432 312.947 25.6005 312.765 25.7908L312.767 25.7932 315.035 28.8285C315.389 29.3022 315.954 29.585 316.545 29.585 317.048 29.585 317.522 29.389 317.877 29.0331l1.399-1.3988C319.035 27.4398 318.88 27.1425 318.88 26.8093 318.88 26.2249 319.356 25.7495 319.94 25.7495 320.525 25.7495 321 26.2249 321 26.8093 321 27.2703 320.704 27.6624 320.292 27.8079zM319.06 38.3963C319.06 38.1175 318.834 37.8916 318.555 37.8916H305.501C305.222 37.8916 304.996 38.1175 304.996 38.3963V39.6075C304.996 39.8862 305.222 40.1121 305.501 40.1121h13.054C318.834 40.1121 319.06 39.8862 319.06 39.6075V38.3963z" fill="#ecb613"/></g><g opacity=".25"><path opacity=".5" d="M320.292 137.808C320.295 137.857 320.291 137.908 320.278 137.958L319.168 146.399C319.112 146.623 318.912 146.78 318.681 146.781L312.019 146.815H312.017 305.355C305.123 146.815 304.921 146.657 304.865 146.432L303.755 137.974C303.742 137.923 303.739 137.871 303.742 137.82 303.312 137.685 303 137.283 303 136.809 303 136.225 303.475 135.75 304.06 135.75 304.644 135.75 305.12 136.225 305.12 136.809 305.12 137.138 304.969 137.433 304.733 137.627L306.123 139.028C306.474 139.382 306.962 139.585 307.46 139.585 308.05 139.585 308.612 139.305 308.966 138.836L311.251 135.809C311.059 135.617 310.94 135.352 310.94 135.06 310.94 134.475 311.416 134 312 134S313.06 134.475 313.06 135.06C313.06 135.343 312.947 135.6 312.765 135.791L312.767 135.793 315.035 138.829C315.389 139.302 315.954 139.585 316.545 139.585 317.048 139.585 317.522 139.389 317.877 139.033l1.399-1.399C319.035 137.44 318.88 137.142 318.88 136.809 318.88 136.225 319.356 135.75 319.94 135.75 320.525 135.75 321 136.225 321 136.809 321 137.27 320.704 137.662 320.292 137.808zM319.06 148.396C319.06 148.118 318.834 147.892 318.555 147.892H305.501C305.222 147.892 304.996 148.118 304.996 148.396V149.607C304.996 149.886 305.222 150.112 305.501 150.112h13.054C318.834 150.112 319.06 149.886 319.06 149.607V148.396z" fill="#ecb613"/></g></svg>