<svg width="328" height="220" viewBox="0 0 328 220" fill="none" xmlns="http://www.w3.org/2000/svg"><path d="M12.8835 65.1794 2.27987 47.5044C2.06125 47.1264 1.94557 46.6978 1.94435 46.2612 1.94312 45.8247 2.05639 45.3955 2.27289 45.0162 2.48939 44.637 2.80157 44.3209 3.17838 44.0996 3.55518 43.8782 3.98347 43.7592 4.42063 43.7544H25.628C26.0651 43.7592 26.4934 43.8782 26.8702 44.0996 27.247 44.3209 27.5592 44.637 27.7757 45.0162 27.9922 45.3955 28.1055 45.8247 28.1043 46.2612 28.103 46.6978 27.9874 47.1264 27.7687 47.5044L17.1651 65.1794C16.9419 65.5467 16.6276 65.8505 16.2527 66.0613 15.8777 66.2721 15.4546 66.3828 15.0243 66.3828 14.594 66.3828 14.1709 66.2721 13.7959 66.0613 13.421 65.8505 13.1067 65.5467 12.8835 65.1794v0z" fill="#d92626" fill-opacity=".2"/><path d="M12.8835 175.179 2.27987 157.504C2.06125 157.126 1.94557 156.698 1.94435 156.261 1.94312 155.825 2.05639 155.395 2.27289 155.016 2.48939 154.637 2.80157 154.321 3.17838 154.1 3.55518 153.878 3.98347 153.759 4.42063 153.754H25.628C26.0651 153.759 26.4934 153.878 26.8702 154.1 27.247 154.321 27.5592 154.637 27.7757 155.016 27.9922 155.395 28.1055 155.825 28.1043 156.261 28.103 156.698 27.9874 157.126 27.7687 157.504L17.1651 175.179C16.9419 175.547 16.6276 175.85 16.2527 176.061 15.8777 176.272 15.4546 176.383 15.0243 176.383 14.594 176.383 14.1709 176.272 13.7959 176.061 13.421 175.85 13.1067 175.547 12.8835 175.179v0z" fill="#d92626" fill-opacity=".4"/><path d="M66.0026 103.571 51.8644 80.0045C51.5729 79.5005 51.4186 78.929 51.417 78.347 51.4154 77.765 51.5664 77.1927 51.8551 76.687 52.1437 76.1813 52.56 75.76 53.0624 75.4648 53.5648 75.1696 54.1358 75.0109 54.7187 75.0045H82.9952C83.5781 75.0109 84.1491 75.1696 84.6515 75.4648 85.1539 75.76 85.5702 76.1813 85.8588 76.687 86.1475 77.1927 86.2985 77.765 86.2969 78.347 86.2953 78.929 86.141 79.5005 85.8495 80.0045L71.7113 103.571C71.4137 104.061 70.9947 104.466 70.4948 104.747 69.9948 105.028 69.4307 105.176 68.8569 105.176 68.2832 105.176 67.7191 105.028 67.2191 104.747S66.3002 104.061 66.0026 103.571v0z" fill="#d92626" fill-opacity=".1"/><path d="M66.0026 213.571 51.8644 190.005C51.5729 189.501 51.4186 188.929 51.417 188.347 51.4154 187.765 51.5664 187.193 51.8551 186.687 52.1437 186.181 52.56 185.76 53.0624 185.465 53.5648 185.17 54.1358 185.011 54.7187 185.005H82.9952C83.5781 185.011 84.1491 185.17 84.6515 185.465 85.1539 185.76 85.5702 186.181 85.8588 186.687 86.1475 187.193 86.2985 187.765 86.2969 188.347 86.2953 188.929 86.141 189.501 85.8495 190.005L71.7113 213.571C71.4137 214.061 70.9947 214.466 70.4948 214.747 69.9948 215.028 69.4307 215.176 68.8569 215.176 68.2832 215.176 67.7191 215.028 67.2191 214.747 66.7191 214.466 66.3002 214.061 66.0026 213.571v0z" fill="#d92626" fill-opacity=".1"/><path d="M106.063 53.5712 91.9249 30.0045C91.6334 29.5005 91.4792 28.929 91.4776 28.347 91.4759 27.765 91.6269 27.1927 91.9156 26.687 92.2043 26.1813 92.6205 25.76 93.1229 25.4648S94.1964 25.0109 94.7793 25.0045H123.056C123.639 25.0109 124.21 25.1696 124.712 25.4648 125.214 25.76 125.631 26.1813 125.919 26.687 126.208 27.1927 126.359 27.765 126.357 28.347 126.356 28.929 126.202 29.5005 125.91 30.0045L111.772 53.5712C111.474 54.061 111.055 54.466 110.555 54.7471 110.055 55.0281 109.491 55.1758 108.917 55.1758 108.344 55.1758 107.78 55.0281 107.28 54.7471 106.78 54.466 106.361 54.061 106.063 53.5712v0z" fill="#d92626" fill-opacity=".1"/><path d="M106.063 163.571 91.9249 140.005C91.6334 139.501 91.4792 138.929 91.4776 138.347 91.4759 137.765 91.6269 137.193 91.9156 136.687 92.2043 136.181 92.6205 135.76 93.1229 135.465 93.6253 135.17 94.1964 135.011 94.7793 135.005H123.056C123.639 135.011 124.21 135.17 124.712 135.465 125.214 135.76 125.631 136.181 125.919 136.687 126.208 137.193 126.359 137.765 126.357 138.347 126.356 138.929 126.202 139.501 125.91 140.005l-14.138 23.566C111.474 164.061 111.055 164.466 110.555 164.747 110.055 165.028 109.491 165.176 108.917 165.176 108.344 165.176 107.78 165.028 107.28 164.747 106.78 164.466 106.361 164.061 106.063 163.571v0z" fill="#d92626" fill-opacity=".2"/><path d="M178.135 92.1794l-10.603-17.675C167.313 74.1264 167.198 73.6978 167.196 73.2612 167.195 72.8247 167.308 72.3955 167.525 72.0162 167.741 71.637 168.054 71.3209 168.43 71.0996 168.807 70.8782 169.235 70.7592 169.673 70.7544H190.88C191.317 70.7592 191.745 70.8782 192.122 71.0996 192.499 71.3209 192.811 71.637 193.028 72.0162 193.244 72.3955 193.357 72.8247 193.356 73.2612 193.355 73.6978 193.239 74.1264 193.021 74.5044l-10.604 17.675C182.194 92.5467 181.88 92.8505 181.505 93.0613 181.13 93.2721 180.707 93.3828 180.276 93.3828 179.846 93.3828 179.423 93.2721 179.048 93.0613 178.673 92.8505 178.359 92.5467 178.135 92.1794v0z" fill="#d92626" fill-opacity=".2"/><path d="M178.135 202.179l-10.603-17.675C167.313 184.126 167.198 183.698 167.196 183.261 167.195 182.825 167.308 182.395 167.525 182.016 167.741 181.637 168.054 181.321 168.43 181.1 168.807 180.878 169.235 180.759 169.673 180.754H190.88C191.317 180.759 191.745 180.878 192.122 181.1 192.499 181.321 192.811 181.637 193.028 182.016 193.244 182.395 193.357 182.825 193.356 183.261 193.355 183.698 193.239 184.126 193.021 184.504l-10.604 17.675C182.194 202.547 181.88 202.85 181.505 203.061 181.13 203.272 180.707 203.383 180.276 203.383 179.846 203.383 179.423 203.272 179.048 203.061 178.673 202.85 178.359 202.547 178.135 202.179v0z" fill="#d92626" fill-opacity=".2"/><path d="M196.202 33.5712 182.064 10.0045C181.772 9.5005 181.618 8.92904 181.616 8.34701 181.615 7.76497 181.766 7.19266 182.054 6.687 182.343 6.18134 182.759 5.75996 183.262 5.46479 183.764 5.16962 184.335 5.01093 184.918 5.00454h28.276C213.777 5.01093 214.348 5.16962 214.851 5.46479 215.353 5.75996 215.769 6.18134 216.058 6.687 216.347 7.19266 216.498 7.76497 216.496 8.34701 216.494 8.92904 216.34 9.5005 216.049 10.0045L201.911 33.5712C201.613 34.061 201.194 34.466 200.694 34.7471 200.194 35.0281 199.63 35.1758 199.056 35.1758 198.482 35.1758 197.918 35.0281 197.418 34.7471 196.918 34.466 196.499 34.061 196.202 33.5712v0z" fill="#d92626" fill-opacity=".15"/><path d="M196.202 143.571l-14.138-23.566C181.772 119.501 181.618 118.929 181.616 118.347 181.615 117.765 181.766 117.193 182.054 116.687 182.343 116.181 182.759 115.76 183.262 115.465 183.764 115.17 184.335 115.011 184.918 115.005h28.276C213.777 115.011 214.348 115.17 214.851 115.465 215.353 115.76 215.769 116.181 216.058 116.687 216.347 117.193 216.498 117.765 216.496 118.347 216.494 118.929 216.34 119.501 216.049 120.005l-14.138 23.566C201.613 144.061 201.194 144.466 200.694 144.747 200.194 145.028 199.63 145.176 199.056 145.176 198.482 145.176 197.918 145.028 197.418 144.747 196.918 144.466 196.499 144.061 196.202 143.571v0z" fill="#d92626" fill-opacity=".15"/><path d="M280.792 87.6794l-10.604-17.675C269.969 69.6264 269.854 69.1978 269.853 68.7612 269.851 68.3247 269.965 67.8955 270.181 67.5162 270.398 67.137 270.71 66.8209 271.087 66.5996 271.463 66.3782 271.892 66.2592 272.329 66.2544h21.207C293.973 66.2592 294.402 66.3782 294.778 66.5996 295.155 66.8209 295.467 67.137 295.684 67.5162 295.9 67.8955 296.014 68.3247 296.012 68.7612 296.011 69.1978 295.896 69.6264 295.677 70.0044l-10.604 17.675C284.85 88.0467 284.536 88.3505 284.161 88.5613 283.786 88.7721 283.363 88.8828 282.933 88.8828 282.502 88.8828 282.079 88.7721 281.704 88.5613 281.329 88.3505 281.015 88.0467 280.792 87.6794v0z" fill="#d92626" fill-opacity=".4"/><path d="M280.792 197.679l-10.604-17.675C269.969 179.626 269.854 179.198 269.853 178.761 269.851 178.325 269.965 177.895 270.181 177.516 270.398 177.137 270.71 176.821 271.087 176.6 271.463 176.378 271.892 176.259 272.329 176.254h21.207C293.973 176.259 294.402 176.378 294.778 176.6 295.155 176.821 295.467 177.137 295.684 177.516 295.9 177.895 296.014 178.325 296.012 178.761 296.011 179.198 295.896 179.626 295.677 180.004l-10.604 17.675C284.85 198.047 284.536 198.35 284.161 198.561 283.786 198.772 283.363 198.883 282.933 198.883 282.502 198.883 282.079 198.772 281.704 198.561 281.329 198.35 281.015 198.047 280.792 197.679v0z" fill="#d92626" fill-opacity=".4"/><path d="M310.839 47.6794l-10.604-17.675C300.016 29.6264 299.901 29.1978 299.899 28.7612 299.898 28.3247 300.011 27.8955 300.228 27.5162 300.444 27.137 300.757 26.8209 301.133 26.5996 301.51 26.3782 301.939 26.2592 302.376 26.2544H323.583C324.02 26.2592 324.448 26.3782 324.825 26.5996 325.202 26.8209 325.514 27.137 325.731 27.5162 325.947 27.8955 326.061 28.3247 326.059 28.7612 326.058 29.1978 325.942 29.6264 325.724 30.0044L315.12 47.6794C314.897 48.0467 314.583 48.3505 314.208 48.5613 313.833 48.7721 313.41 48.8828 312.979 48.8828 312.549 48.8828 312.126 48.7721 311.751 48.5613 311.376 48.3505 311.062 48.0467 310.839 47.6794v0z" fill="#d92626" fill-opacity=".2"/><path d="M310.839 157.679l-10.604-17.675C300.016 139.626 299.901 139.198 299.899 138.761 299.898 138.325 300.011 137.895 300.228 137.516 300.444 137.137 300.757 136.821 301.133 136.6 301.51 136.378 301.939 136.259 302.376 136.254H323.583C324.02 136.259 324.448 136.378 324.825 136.6 325.202 136.821 325.514 137.137 325.731 137.516 325.947 137.895 326.061 138.325 326.059 138.761 326.058 139.198 325.942 139.626 325.724 140.004L315.12 157.679C314.897 158.047 314.583 158.35 314.208 158.561 313.833 158.772 313.41 158.883 312.979 158.883 312.549 158.883 312.126 158.772 311.751 158.561 311.376 158.35 311.062 158.047 310.839 157.679v0z" fill="#d92626" fill-opacity=".4"/></svg>