<svg width="328" height="220" viewBox="0 0 328 220" fill="none" xmlns="http://www.w3.org/2000/svg"><path d="M12.8639 44.8206 2.27643 62.4956C2.05814 62.8736 1.94264 63.3022 1.94142 63.7388 1.94019 64.1753 2.05329 64.6045 2.26946 64.9838 2.48563 65.363 2.79734 65.6791 3.17356 65.9004 3.54979 66.1218 3.97743 66.2408 4.41393 66.2456H25.5889C26.0254 66.2408 26.4531 66.1218 26.8293 65.9004 27.2055 65.6791 27.5172 65.363 27.7334 64.9838 27.9496 64.6045 28.0627 64.1753 28.0614 63.7388 28.0602 63.3022 27.9447 62.8736 27.7264 62.4956L17.1389 44.8206C16.9161 44.4533 16.6023 44.1495 16.2279 43.9387 15.8535 43.7279 15.4311 43.6172 15.0014 43.6172 14.5718 43.6172 14.1493 43.7279 13.7749 43.9387 13.4005 44.1495 13.0868 44.4533 12.8639 44.8206v0z" fill="#17cf60" fill-opacity=".2"/><path d="M12.8639 154.821 2.27643 172.496C2.05814 172.874 1.94264 173.302 1.94142 173.739 1.94019 174.175 2.05329 174.605 2.26946 174.984 2.48563 175.363 2.79734 175.679 3.17356 175.9 3.54979 176.122 3.97743 176.241 4.41393 176.246H25.5889C26.0254 176.241 26.4531 176.122 26.8293 175.9 27.2055 175.679 27.5172 175.363 27.7334 174.984 27.9496 174.605 28.0627 174.175 28.0614 173.739 28.0602 173.302 27.9447 172.874 27.7264 172.496L17.1389 154.821C16.9161 154.453 16.6023 154.15 16.2279 153.939 15.8535 153.728 15.4311 153.617 15.0014 153.617 14.5718 153.617 14.1493 153.728 13.7749 153.939 13.4005 154.15 13.0868 154.453 12.8639 154.821v0z" fill="#17cf60" fill-opacity=".4"/><path d="M65.9013 76.4288 51.7846 99.9955C51.4935 100.499 51.3395 101.071 51.3379 101.653 51.3363 102.235 51.4871 102.807 51.7753 103.313 52.0635 103.819 52.4791 104.24 52.9808 104.535 53.4824 104.83 54.0526 104.989 54.6346 104.995H82.8679C83.4499 104.989 84.0201 104.83 84.5217 104.535 85.0234 104.24 85.439 103.819 85.7272 103.313S86.1662 102.235 86.1646 101.653C86.163 101.071 86.009 100.499 85.7179 99.9955L71.6013 76.4288C71.3041 75.939 70.8858 75.534 70.3866 75.2529 69.8874 74.9719 69.3241 74.8242 68.7513 74.8242 68.1784 74.8242 67.6151 74.9719 67.1159 75.2529 66.6167 75.534 66.1984 75.939 65.9013 76.4288v0z" fill="#17cf60" fill-opacity=".1"/><path d="M65.9013 186.429 51.7846 209.995C51.4935 210.499 51.3395 211.071 51.3379 211.653 51.3363 212.235 51.4871 212.807 51.7753 213.313 52.0635 213.819 52.4791 214.24 52.9808 214.535 53.4824 214.83 54.0526 214.989 54.6346 214.995H82.8679C83.4499 214.989 84.0201 214.83 84.5217 214.535 85.0234 214.24 85.439 213.819 85.7272 213.313S86.1662 212.235 86.1646 211.653C86.163 211.071 86.009 210.499 85.7179 209.995L71.6013 186.429C71.3041 185.939 70.8858 185.534 70.3866 185.253 69.8874 184.972 69.3241 184.824 68.7513 184.824 68.1784 184.824 67.6151 184.972 67.1159 185.253 66.6167 185.534 66.1984 185.939 65.9013 186.429v0z" fill="#17cf60" fill-opacity=".1"/><path d="M105.901 26.4288 91.7846 49.9955C91.4935 50.4995 91.3395 51.071 91.3379 51.653 91.3363 52.235 91.4871 52.8073 91.7753 53.313 92.0635 53.8187 92.4791 54.24 92.9808 54.5352 93.4824 54.8304 94.0526 54.9891 94.6346 54.9955H122.868C123.45 54.9891 124.02 54.8304 124.522 54.5352 125.023 54.24 125.439 53.8187 125.727 53.313 126.015 52.8073 126.166 52.235 126.165 51.653 126.163 51.071 126.009 50.4995 125.718 49.9955L111.601 26.4288C111.304 25.939 110.886 25.534 110.387 25.2529 109.887 24.9719 109.324 24.8242 108.751 24.8242 108.178 24.8242 107.615 24.9719 107.116 25.2529 106.617 25.534 106.198 25.939 105.901 26.4288v0z" fill="#17cf60" fill-opacity=".1"/><path d="M105.901 136.429 91.7846 159.995C91.4935 160.499 91.3395 161.071 91.3379 161.653 91.3363 162.235 91.4871 162.807 91.7753 163.313S92.4791 164.24 92.9808 164.535C93.4824 164.83 94.0526 164.989 94.6346 164.995H122.868C123.45 164.989 124.02 164.83 124.522 164.535 125.023 164.24 125.439 163.819 125.727 163.313 126.015 162.807 126.166 162.235 126.165 161.653 126.163 161.071 126.009 160.499 125.718 159.995l-14.117-23.566C111.304 135.939 110.886 135.534 110.387 135.253 109.887 134.972 109.324 134.824 108.751 134.824 108.178 134.824 107.615 134.972 107.116 135.253 106.617 135.534 106.198 135.939 105.901 136.429v0z" fill="#17cf60" fill-opacity=".2"/><path d="M177.864 71.8206l-10.588 17.675C167.058 89.8736 166.943 90.3022 166.941 90.7388 166.94 91.1753 167.053 91.6045 167.269 91.9838 167.486 92.363 167.797 92.6791 168.174 92.9004 168.55 93.1218 168.977 93.2408 169.414 93.2456h21.175C191.025 93.2408 191.453 93.1218 191.829 92.9004 192.206 92.6791 192.517 92.363 192.733 91.9838 192.95 91.6045 193.063 91.1753 193.061 90.7388 193.06 90.3022 192.945 89.8736 192.726 89.4956l-10.587-17.675C181.916 71.4533 181.602 71.1495 181.228 70.9387 180.854 70.7279 180.431 70.6172 180.001 70.6172 179.572 70.6172 179.149 70.7279 178.775 70.9387 178.401 71.1495 178.087 71.4533 177.864 71.8206v0z" fill="#17cf60" fill-opacity=".2"/><path d="M177.864 181.821l-10.588 17.675C167.058 199.874 166.943 200.302 166.941 200.739 166.94 201.175 167.053 201.605 167.269 201.984 167.486 202.363 167.797 202.679 168.174 202.9 168.55 203.122 168.977 203.241 169.414 203.246h21.175C191.025 203.241 191.453 203.122 191.829 202.9 192.206 202.679 192.517 202.363 192.733 201.984 192.95 201.605 193.063 201.175 193.061 200.739 193.06 200.302 192.945 199.874 192.726 199.496l-10.587-17.675C181.916 181.453 181.602 181.15 181.228 180.939 180.854 180.728 180.431 180.617 180.001 180.617 179.572 180.617 179.149 180.728 178.775 180.939 178.401 181.15 178.087 181.453 177.864 181.821v0z" fill="#17cf60" fill-opacity=".2"/><path d="M195.901 6.42879 181.785 29.9955C181.494 30.4995 181.34 31.071 181.338 31.653 181.336 32.235 181.487 32.8073 181.775 33.313 182.064 33.8187 182.479 34.24 182.981 34.5352 183.482 34.8304 184.053 34.9891 184.635 34.9955h28.233C213.45 34.9891 214.02 34.8304 214.522 34.5352 215.023 34.24 215.439 33.8187 215.727 33.313 216.015 32.8073 216.166 32.235 216.165 31.653 216.163 31.071 216.009 30.4995 215.718 29.9955L201.601 6.42879C201.304 5.93897 200.886 5.53399 200.387 5.25293 199.887 4.97187 199.324 4.82422 198.751 4.82422S197.615 4.97187 197.116 5.25293C196.617 5.53399 196.198 5.93897 195.901 6.42879v0z" fill="#17cf60" fill-opacity=".15"/><path d="M195.901 116.429l-14.116 23.566C181.494 140.499 181.34 141.071 181.338 141.653 181.336 142.235 181.487 142.807 181.775 143.313 182.064 143.819 182.479 144.24 182.981 144.535 183.482 144.83 184.053 144.989 184.635 144.995h28.233C213.45 144.989 214.02 144.83 214.522 144.535 215.023 144.24 215.439 143.819 215.727 143.313 216.015 142.807 216.166 142.235 216.165 141.653 216.163 141.071 216.009 140.499 215.718 139.995l-14.117-23.566C201.304 115.939 200.886 115.534 200.387 115.253 199.887 114.972 199.324 114.824 198.751 114.824S197.615 114.972 197.116 115.253C196.617 115.534 196.198 115.939 195.901 116.429v0z" fill="#17cf60" fill-opacity=".15"/><path d="M280.364 67.3206l-10.588 17.675C269.558 85.3736 269.443 85.8022 269.441 86.2388 269.44 86.6753 269.553 87.1045 269.769 87.4838 269.986 87.863 270.297 88.1791 270.674 88.4004 271.05 88.6218 271.477 88.7408 271.914 88.7456h21.175C293.525 88.7408 293.953 88.6218 294.329 88.4004 294.706 88.1791 295.017 87.863 295.233 87.4838 295.45 87.1045 295.563 86.6753 295.561 86.2388 295.56 85.8022 295.445 85.3736 295.226 84.9956l-10.587-17.675C284.416 66.9533 284.102 66.6495 283.728 66.4387 283.354 66.2279 282.931 66.1172 282.501 66.1172 282.072 66.1172 281.649 66.2279 281.275 66.4387 280.901 66.6495 280.587 66.9533 280.364 67.3206v0z" fill="#17cf60" fill-opacity=".4"/><path d="M280.364 177.321l-10.588 17.675C269.558 195.374 269.443 195.802 269.441 196.239 269.44 196.675 269.553 197.105 269.769 197.484 269.986 197.863 270.297 198.179 270.674 198.4 271.05 198.622 271.477 198.741 271.914 198.746h21.175C293.525 198.741 293.953 198.622 294.329 198.4 294.706 198.179 295.017 197.863 295.233 197.484 295.45 197.105 295.563 196.675 295.561 196.239 295.56 195.802 295.445 195.374 295.226 194.996l-10.587-17.675C284.416 176.953 284.102 176.65 283.728 176.439 283.354 176.228 282.931 176.117 282.501 176.117 282.072 176.117 281.649 176.228 281.275 176.439 280.901 176.65 280.587 176.953 280.364 177.321v0z" fill="#17cf60" fill-opacity=".4"/><path d="M310.364 27.3206l-10.588 17.675C299.558 45.3736 299.443 45.8022 299.441 46.2388 299.44 46.6753 299.553 47.1045 299.769 47.4838 299.986 47.863 300.297 48.1791 300.674 48.4004 301.05 48.6218 301.477 48.7408 301.914 48.7456h21.175C323.525 48.7408 323.953 48.6218 324.329 48.4004 324.706 48.1791 325.017 47.863 325.233 47.4838 325.45 47.1045 325.563 46.6753 325.561 46.2388 325.56 45.8022 325.445 45.3736 325.226 44.9956l-10.587-17.675C314.416 26.9533 314.102 26.6495 313.728 26.4387 313.354 26.2279 312.931 26.1172 312.501 26.1172 312.072 26.1172 311.649 26.2279 311.275 26.4387 310.901 26.6495 310.587 26.9533 310.364 27.3206v0z" fill="#17cf60" fill-opacity=".2"/><path d="M310.364 137.321l-10.588 17.675C299.558 155.374 299.443 155.802 299.441 156.239 299.44 156.675 299.553 157.105 299.769 157.484 299.986 157.863 300.297 158.179 300.674 158.4 301.05 158.622 301.477 158.741 301.914 158.746h21.175C323.525 158.741 323.953 158.622 324.329 158.4 324.706 158.179 325.017 157.863 325.233 157.484 325.45 157.105 325.563 156.675 325.561 156.239 325.56 155.802 325.445 155.374 325.226 154.996l-10.587-17.675C314.416 136.953 314.102 136.65 313.728 136.439 313.354 136.228 312.931 136.117 312.501 136.117 312.072 136.117 311.649 136.228 311.275 136.439 310.901 136.65 310.587 136.953 310.364 137.321v0z" fill="#17cf60" fill-opacity=".4"/></svg>