<svg xmlns="http://www.w3.org/2000/svg" width="200" height="50" viewBox="0 0 200 50" shape-rendering="auto"><polyline points="0,47.5 1.2345679012345678,47.5 2.4691358024691357,47.5 3.7037037037037033,47.5 4.938271604938271,47.5 6.172839506172839,47.5 7.407407407407407,47.5 8.641975308641975,47.5 9.876543209876543,47.5 11.11111111111111,47.5 12.345679012345679,47.5 13.580246913580247,47.5 14.814814814814815,47.5 16.049382716049383,47.5 17.28395061728395,47.5 18.518518518518515,47.5 19.75308641975308,47.5 20.987654320987648,42.233227861632514 22.222222222222214,36.50504553811945 23.45679012345678,28.679544191217314 24.691358024691347,20.895989224782966 25.925925925925913,13.112434258348616 27.16049382716048,11.812096463847402 28.395061728395046,10.97316885449178 29.629629629629612,12.231560268525213 30.86419753086418,12.189613888057432 32.098765432098745,10.97316885449178 33.333333333333314,8.54027878736048 34.567901234567884,6.107388720229175 35.802469135802454,3.9345662119981153 37.037037037037024,3.020135117800488 38.271604938271594,3.28020267670073 39.50617283950616,3.540270235600973 40.74074074074073,3.800337794501216 41.9753086419753,3.540270235600973 43.20987654320987,3.28020267670073 44.44444444444444,3.020135117800488 45.67901234567901,2.760067558900245 46.91358024691358,2.500000000000002 48.14814814814815,2.500000000000002 49.38271604938272,2.500000000000002 50.61728395061729,2.500000000000002 51.85185185185186,2.500000000000002 53.08641975308643,2.500000000000002 54.320987654321,2.500000000000002 55.55555555555557,2.500000000000002 56.79012345679014,2.500000000000002 58.02469135802471,2.500000000000002 59.25925925925928,2.500000000000002 60.49382716049385,2.500000000000002 61.72839506172842,2.500000000000002 62.96296296296299,2.500000000000002 64.19753086419756,2.5419463804677833 65.43209876543213,2.5838927609355644 66.6666666666667,2.6258391414033455 67.90123456790127,2.6677855218711266 69.13580246913584,2.7097319023389077 70.37037037037041,2.7097319023389077 71.60493827160498,2.7097319023389077 72.83950617283955,2.7097319023389077 74.07407407407412,2.7097319023389077 75.30864197530869,2.7097319023389077 76.54320987654326,2.7097319023389077 77.77777777777783,2.7097319023389077 79.0123456790124,2.7097319023389077 80.24691358024697,2.7097319023389077 81.48148148148154,2.7097319023389077 82.71604938271611,2.7097319023389077 83.95061728395068,2.7097319023389077 85.18518518518525,2.7097319023389077 86.41975308641982,2.7097319023389077 87.65432098765439,2.7097319023389077 88.88888888888896,2.7097319023389077 90.12345679012353,2.7097319023389077 91.3580246913581,2.7097319023389077 92.59259259259267,2.7097319023389077 93.82716049382724,2.7097319023389077 95.0617283950618,3.003356565613375 96.29629629629638,3.296981228887843 97.53086419753095,3.5906058921623103 98.76543209876552,3.884230555436778 100.00000000000009,4.177855218711246 101.23456790123466,4.177855218711246 102.46913580246922,4.177855218711246 103.7037037037038,4.177855218711246 104.93827160493836,4.177855218711246 106.17283950617293,4.177855218711246 107.4074074074075,4.177855218711246 108.64197530864207,4.177855218711246 109.87654320987664,4.177855218711246 111.11111111111121,4.177855218711246 112.34567901234578,4.177855218711246 113.58024691358035,4.177855218711246 114.81481481481492,4.177855218711246 116.0493827160495,4.177855218711246 117.28395061728406,4.177855218711246 118.51851851851863,4.177855218711246 119.7530864197532,4.177855218711246 120.98765432098777,4.177855218711246 122.22222222222234,4.177855218711246 123.45679012345691,4.177855218711246 124.69135802469148,4.177855218711246 125.92592592592605,4.177855218711246 127.16049382716062,4.177855218711246 128.39506172839518,4.177855218711246 129.62962962962973,4.177855218711246 130.8641975308643,4.177855218711246 132.09876543209884,4.177855218711246 133.3333333333334,4.177855218711246 134.56790123456796,4.177855218711246 135.8024691358025,4.177855218711246 137.03703703703707,4.177855218711246 138.27160493827162,4.177855218711246 139.50617283950618,4.177855218711246 140.74074074074073,4.177855218711246 141.9753086419753,4.177855218711246 143.20987654320984,4.177855218711246 144.4444444444444,4.177855218711246 145.67901234567896,4.177855218711246 146.9135802469135,4.177855218711246 148.14814814814807,4.177855218711246 149.38271604938262,4.177855218711246 150.61728395061718,4.177855218711246 151.85185185185173,4.177855218711246 153.0864197530863,4.177855218711246 154.32098765432085,4.177855218711246 155.5555555555554,4.177855218711246 156.79012345678996,4.177855218711246 158.0246913580245,4.177855218711246 159.25925925925907,4.177855218711246 160.49382716049362,4.177855218711246 161.72839506172818,4.177855218711246 162.96296296296273,4.177855218711246 164.1975308641973,4.177855218711246 165.43209876543185,4.177855218711246 166.6666666666664,4.177855218711246 167.90123456790096,4.177855218711246 169.1358024691355,4.177855218711246 170.37037037037007,4.177855218711246 171.60493827160462,4.177855218711246 172.83950617283918,4.177855218711246 174.07407407407374,4.177855218711246 175.3086419753083,4.177855218711246 176.54320987654285,4.177855218711246 177.7777777777774,4.177855218711246 179.01234567901196,4.177855218711246 180.2469135802465,4.177855218711246 181.48148148148107,4.177855218711246 182.71604938271562,4.177855218711246 183.95061728395018,4.177855218711246 185.18518518518474,4.177855218711246 186.4197530864193,4.177855218711246 187.65432098765385,4.177855218711246 188.8888888888884,4.177855218711246 190.12345679012296,4.177855218711246 191.3580246913575,4.177855218711246 192.59259259259207,4.177855218711246 193.82716049382663,4.177855218711246 195.06172839506118,4.177855218711246 196.29629629629574,4.177855218711246 197.5308641975303,4.177855218711246 198.76543209876485,4.177855218711402 199.9999999999994,NaN " stroke="#1fad57" stroke-width="2" stroke-opacity="1" fill="none" fill-opacity="0" stroke-linejoin="round" vector-effect="non-scaling-stroke"/><defs><linearGradient id="areaGradient" x1="0%" y1="0%" x2="0%" y2="100%"><stop offset="0%" stop-color="#1fad57" stop-opacity="0.25"/><stop offset="100%" stop-color="#1fad57" stop-opacity="0"/></linearGradient></defs><path d="&#10;      M 0,47.5 &#10;      L 0,47.5 &#10;      L 0,47.5 L 1.2345679012345678,47.5 L 2.4691358024691357,47.5 L 3.7037037037037033,47.5 L 4.938271604938271,47.5 L 6.172839506172839,47.5 L 7.407407407407407,47.5 L 8.641975308641975,47.5 L 9.876543209876543,47.5 L 11.11111111111111,47.5 L 12.345679012345679,47.5 L 13.580246913580247,47.5 L 14.814814814814815,47.5 L 16.049382716049383,47.5 L 17.28395061728395,47.5 L 18.518518518518515,47.5 L 19.75308641975308,47.5 L 20.987654320987648,42.233227861632514 L 22.222222222222214,36.50504553811945 L 23.45679012345678,28.679544191217314 L 24.691358024691347,20.895989224782966 L 25.925925925925913,13.112434258348616 L 27.16049382716048,11.812096463847402 L 28.395061728395046,10.97316885449178 L 29.629629629629612,12.231560268525213 L 30.86419753086418,12.189613888057432 L 32.098765432098745,10.97316885449178 L 33.333333333333314,8.54027878736048 L 34.567901234567884,6.107388720229175 L 35.802469135802454,3.9345662119981153 L 37.037037037037024,3.020135117800488 L 38.271604938271594,3.28020267670073 L 39.50617283950616,3.540270235600973 L 40.74074074074073,3.800337794501216 L 41.9753086419753,3.540270235600973 L 43.20987654320987,3.28020267670073 L 44.44444444444444,3.020135117800488 L 45.67901234567901,2.760067558900245 L 46.91358024691358,2.500000000000002 L 48.14814814814815,2.500000000000002 L 49.38271604938272,2.500000000000002 L 50.61728395061729,2.500000000000002 L 51.85185185185186,2.500000000000002 L 53.08641975308643,2.500000000000002 L 54.320987654321,2.500000000000002 L 55.55555555555557,2.500000000000002 L 56.79012345679014,2.500000000000002 L 58.02469135802471,2.500000000000002 L 59.25925925925928,2.500000000000002 L 60.49382716049385,2.500000000000002 L 61.72839506172842,2.500000000000002 L 62.96296296296299,2.500000000000002 L 64.19753086419756,2.5419463804677833 L 65.43209876543213,2.5838927609355644 L 66.6666666666667,2.6258391414033455 L 67.90123456790127,2.6677855218711266 L 69.13580246913584,2.7097319023389077 L 70.37037037037041,2.7097319023389077 L 71.60493827160498,2.7097319023389077 L 72.83950617283955,2.7097319023389077 L 74.07407407407412,2.7097319023389077 L 75.30864197530869,2.7097319023389077 L 76.54320987654326,2.7097319023389077 L 77.77777777777783,2.7097319023389077 L 79.0123456790124,2.7097319023389077 L 80.24691358024697,2.7097319023389077 L 81.48148148148154,2.7097319023389077 L 82.71604938271611,2.7097319023389077 L 83.95061728395068,2.7097319023389077 L 85.18518518518525,2.7097319023389077 L 86.41975308641982,2.7097319023389077 L 87.65432098765439,2.7097319023389077 L 88.88888888888896,2.7097319023389077 L 90.12345679012353,2.7097319023389077 L 91.3580246913581,2.7097319023389077 L 92.59259259259267,2.7097319023389077 L 93.82716049382724,2.7097319023389077 L 95.0617283950618,3.003356565613375 L 96.29629629629638,3.296981228887843 L 97.53086419753095,3.5906058921623103 L 98.76543209876552,3.884230555436778 L 100.00000000000009,4.177855218711246 L 101.23456790123466,4.177855218711246 L 102.46913580246922,4.177855218711246 L 103.7037037037038,4.177855218711246 L 104.93827160493836,4.177855218711246 L 106.17283950617293,4.177855218711246 L 107.4074074074075,4.177855218711246 L 108.64197530864207,4.177855218711246 L 109.87654320987664,4.177855218711246 L 111.11111111111121,4.177855218711246 L 112.34567901234578,4.177855218711246 L 113.58024691358035,4.177855218711246 L 114.81481481481492,4.177855218711246 L 116.0493827160495,4.177855218711246 L 117.28395061728406,4.177855218711246 L 118.51851851851863,4.177855218711246 L 119.7530864197532,4.177855218711246 L 120.98765432098777,4.177855218711246 L 122.22222222222234,4.177855218711246 L 123.45679012345691,4.177855218711246 L 124.69135802469148,4.177855218711246 L 125.92592592592605,4.177855218711246 L 127.16049382716062,4.177855218711246 L 128.39506172839518,4.177855218711246 L 129.62962962962973,4.177855218711246 L 130.8641975308643,4.177855218711246 L 132.09876543209884,4.177855218711246 L 133.3333333333334,4.177855218711246 L 134.56790123456796,4.177855218711246 L 135.8024691358025,4.177855218711246 L 137.03703703703707,4.177855218711246 L 138.27160493827162,4.177855218711246 L 139.50617283950618,4.177855218711246 L 140.74074074074073,4.177855218711246 L 141.9753086419753,4.177855218711246 L 143.20987654320984,4.177855218711246 L 144.4444444444444,4.177855218711246 L 145.67901234567896,4.177855218711246 L 146.9135802469135,4.177855218711246 L 148.14814814814807,4.177855218711246 L 149.38271604938262,4.177855218711246 L 150.61728395061718,4.177855218711246 L 151.85185185185173,4.177855218711246 L 153.0864197530863,4.177855218711246 L 154.32098765432085,4.177855218711246 L 155.5555555555554,4.177855218711246 L 156.79012345678996,4.177855218711246 L 158.0246913580245,4.177855218711246 L 159.25925925925907,4.177855218711246 L 160.49382716049362,4.177855218711246 L 161.72839506172818,4.177855218711246 L 162.96296296296273,4.177855218711246 L 164.1975308641973,4.177855218711246 L 165.43209876543185,4.177855218711246 L 166.6666666666664,4.177855218711246 L 167.90123456790096,4.177855218711246 L 169.1358024691355,4.177855218711246 L 170.37037037037007,4.177855218711246 L 171.60493827160462,4.177855218711246 L 172.83950617283918,4.177855218711246 L 174.07407407407374,4.177855218711246 L 175.3086419753083,4.177855218711246 L 176.54320987654285,4.177855218711246 L 177.7777777777774,4.177855218711246 L 179.01234567901196,4.177855218711246 L 180.2469135802465,4.177855218711246 L 181.48148148148107,4.177855218711246 L 182.71604938271562,4.177855218711246 L 183.95061728395018,4.177855218711246 L 185.18518518518474,4.177855218711246 L 186.4197530864193,4.177855218711246 L 187.65432098765385,4.177855218711246 L 188.8888888888884,4.177855218711246 L 190.12345679012296,4.177855218711246 L 191.3580246913575,4.177855218711246 L 192.59259259259207,4.177855218711246 L 193.82716049382663,4.177855218711246 L 195.06172839506118,4.177855218711246 L 196.29629629629574,4.177855218711246 L 197.5308641975303,4.177855218711246 L 198.76543209876485,4.177855218711402 L 199.9999999999994,47.5 L 0,47.5 &#10;      L 0,47.5 &#10;      Z&#10;    " fill="url(#areaGradient)"/></svg>